<svg id="Layer_1" data-name="Layer 1" xmlns="http://www.w3.org/2000/svg" viewBox="0 0 530.27 88.24"><defs><style>.cls-1{fill:#492b64;}.cls-2{fill:#4c2d6a;}.cls-3{fill:#b5224d;}.cls-4{fill:#864632;}.cls-5{fill:#294a70;}.cls-6{fill:#bc6a4c;}.cls-7{fill:#ae7864;}.cls-8{fill:#a4191c;}.cls-9{fill:#ae4454;}.cls-10{fill:#881536;}.cls-11{fill:#a2705d;}.cls-12{fill:#9f191a;}.cls-13{fill:#a7414f;}.cls-14{fill:#a97561;}.cls-15{fill:#ad4251;}.cls-16{fill:#aa1e47;}.cls-17{fill:#42285c;}.cls-18{fill:#0e447c;}.cls-19{fill:#4b2e69;}.cls-20{fill:#ae1f4a;}.cls-21{fill:#ac4351;}.cls-22{fill:#a97560;}.cls-23{fill:#09467f;}.cls-24{fill:#9a3d49;}.cls-25{fill:#9c3e4a;}.cls-26{fill:#a87560;}.cls-27{fill:#492b65;}.cls-28{fill:#163e6c;}.cls-29{fill:#a35131;}.cls-30{fill:#ac7261;}.cls-31{fill:#ab3e4d;}.cls-32{fill:#b4224c;}.cls-33{fill:#153e6d;}.cls-34{fill:#5c3680;}.cls-35{fill:#aa1919;}.cls-36{fill:#bc495b;}.cls-37{fill:#c98a73;}.cls-38{fill:#d55364;}.cls-39{fill:#004c8e;}.cls-40{fill:#ce8e76;}.cls-41{fill:#c78973;}.cls-42{fill:#d7947c;}.cls-43{fill:#623a8a;}.cls-44{fill:#e12a5d;}.cls-45{fill:#d8937b;}.cls-46{fill:#e15869;}.cls-47{fill:#e1111f;}.cls-48{fill:#d29178;}.cls-49{fill:#da5669;}.cls-50{fill:#cf2759;}.cls-51{fill:#dc275e;}.cls-52{fill:#df586b;}.cls-53{fill:#9d6c59;}.cls-54{fill:#a36f5d;}.cls-55{fill:#5f3984;}.cls-56{fill:#1260ab;}.cls-57{fill:#cb1521;}.cls-58{fill:#e84054;}.cls-59{fill:#d75466;}.cls-60{fill:#a3163f;}.cls-61{fill:#a5715e;}.cls-62{fill:#e41721;}.cls-63{fill:#bf1b48;}.cls-64{fill:#df285e;}.cls-65{fill:#5a367c;}.cls-66{fill:#0e5ca8;}.cls-67{fill:#603a84;}.cls-68{fill:#df5868;}.cls-69{fill:#df9c86;}.cls-70{fill:#df6c41;}.cls-71{fill:#3b254b;}.cls-72{fill:#bb485a;}.cls-73{fill:#eba288;}.cls-74{fill:#07559d;}.cls-75{fill:#6c4293;}.cls-76{fill:#e94759;}.cls-77{fill:#105fab;}.cls-78{fill:#6a4092;}.cls-79{fill:#eaa286;}.cls-80{fill:#ec647a;}.cls-81{fill:#243c7e;}.cls-82{fill:#f6ae92;}.cls-83{fill:#f6aa8e;}.cls-84{fill:#bd826c;}.cls-85{fill:#e8366a;}.cls-86{fill:#f6ab8f;}.cls-87{fill:#a0705c;}.cls-88{fill:#044c8b;}.cls-89{fill:#e4151e;}.cls-90{fill:#ec6378;}.cls-91{fill:#6d4394;}.cls-92{fill:#ec6479;}.cls-93{fill:#e8366b;}.cls-94{fill:#ec6077;}.cls-95{fill:#e8356a;}.cls-96{fill:#f6ad91;}.cls-97{fill:#ec6177;}.cls-98{fill:#b61a45;}.cls-99{fill:#e62b5f;}.cls-100{fill:#de5568;}.cls-101{fill:#e85c6d;}.cls-102{fill:#1261ac;}.cls-103{fill:#aa1f48;}.cls-104{fill:#a01922;}.cls-105{fill:#d29177;}.cls-106{fill:#a94251;}.cls-107{fill:#c82455;}.cls-108{fill:#0e4377;}.cls-109{fill:#08569f;}.cls-110{fill:#dd5668;}.cls-111{fill:#c01820;}.cls-112{fill:#9b3d48;}.cls-113{fill:#e72d63;}.cls-114{fill:#a0191f;}.cls-115{fill:#c94d5e;}.cls-116{fill:#e72e62;}.cls-117{fill:#be485b;}.cls-118{fill:#e6596b;}.cls-119{fill:#9a563d;}.cls-120{fill:#9e1d41;}.cls-121{fill:#a11d44;}.cls-122{fill:#e55969;}.cls-123{fill:#ea5c6e;}.cls-124{fill:#08549b;}.cls-125{fill:#c52454;}.cls-126{fill:#e0997f;}.cls-127{fill:#c12150;}.cls-128{fill:#9b4a2d;}.cls-129{fill:#4b2c69;}.cls-130{fill:#e4151f;}.cls-131{fill:#a97662;}.cls-132{fill:#e8376c;}.cls-133{fill:#5e3786;}.cls-134{fill:#dc9880;}.cls-135{fill:#ad1e49;}.cls-136{fill:#e84154;}.cls-137{fill:#c02151;}.cls-138{fill:#0e447d;}.cls-139{fill:#6b4192;}.cls-140{fill:#c1495b;}.cls-141{fill:#d7947a;}.cls-142{fill:#a41d42;}.cls-143{fill:#57367b;}.cls-144{fill:#e72d62;}.cls-145{fill:#3d2150;}.cls-146{fill:#b01f4a;}.cls-147{fill:#ad7762;}.cls-148{fill:#e51d2a;}.cls-149{fill:#c62455;}.cls-150{fill:#5a347b;}.cls-151{fill:#c61621;}.cls-152{fill:#ba1d4a;}.cls-153{fill:#d8967c;}.cls-154{fill:#d18f75;}.cls-155{fill:#d25364;}.cls-156{fill:#dd5669;}.cls-157{fill:#004a88;}.cls-158{fill:#663e8f;}.cls-159{fill:#b4826f;}.cls-160{fill:#512d6b;}.cls-161{fill:#dd285c;}.cls-162{fill:#f6ac90;}.cls-163{fill:#ba4e5e;}.cls-164{fill:#e83669;}.cls-165{fill:#f0a58a;}.cls-166{fill:#a7404f;}.cls-167{fill:#cf5263;}.cls-168{fill:#a5191d;}.cls-169{fill:#966856;}.cls-170{fill:#ac1920;}.cls-171{fill:#9f1919;}.cls-172{fill:#064d8d;}.cls-173{fill:#af7965;}.cls-174{fill:#c73344;}.cls-175{fill:#a6404e;}.cls-176{fill:#a91f47;}.cls-177{fill:#cc8d74;}.cls-178{fill:#cf8f76;}.cls-179{fill:#ce141e;}.cls-180{fill:#e94359;}.cls-181{fill:#613a89;}.cls-182{fill:#c74d5f;}.cls-183{fill:#dc5568;}.cls-184{fill:#bd495b;}.cls-185{fill:#e0576b;}.cls-186{fill:#e83b4f;}.cls-187{fill:#9d3e4a;}.cls-188{fill:#de285f;}.cls-189{fill:#ea6270;}.cls-190{fill:#07559e;}.cls-191{fill:#dc1a30;}.cls-192{fill:#eb5c6f;}.cls-193{fill:#eda387;}.cls-194{fill:#f6af93;}.cls-195{fill:#a1191a;}.cls-196{fill:#a8755f;}.cls-197{fill:#c88a71;}.cls-198{fill:#e7303f;}.cls-199{fill:#e59e83;}.cls-200{fill:#b37b66;}.cls-201{fill:#801432;}.cls-202{fill:#de6b40;}.cls-203{fill:#b44656;}.cls-204{fill:#de556a;}.cls-205{fill:#c62454;}.cls-206{fill:#7f1431;}.cls-207{fill:#a41e45;}.cls-208{fill:#a5715f;}.cls-209{fill:#d8265c;}.cls-210{fill:#c58871;}.cls-211{fill:#0759a4;}.cls-212{fill:#e6a084;}.cls-213{fill:#db977d;}.cls-214{fill:#e22a60;}.cls-215{fill:#452860;}.cls-216{fill:#e1586b;}.cls-217{fill:#b3224d;}.cls-218{fill:#d4255a;}.cls-219{fill:#ad7764;}.cls-220{fill:#0f4275;}.cls-221{fill:#4e2d69;}.cls-222{fill:#92153a;}.cls-223{fill:#4f2f6b;}.cls-224{fill:#533375;}.cls-225{fill:#532b69;}.cls-226{fill:#6c4193;}.cls-227{fill:#472252;}.cls-228{fill:#a83f4e;}.cls-229{fill:#db987d;}.cls-230{fill:#a7191d;}.cls-231{fill:#503070;}.cls-232{fill:#af4453;}.cls-233{fill:#a3705c;}.cls-234{fill:#a91e48;}.cls-235{fill:#e38660;}.cls-236{fill:#eca185;}.cls-237{fill:#b7234f;}.cls-238{fill:#4b2c67;}.cls-239{fill:#da5567;}.cls-240{fill:#c98a72;}.cls-241{fill:#07559c;}.cls-242{fill:#b81945;}.cls-243{fill:#5c367d;}.cls-244{fill:#b91826;}.cls-245{fill:#e3131e;}.cls-246{fill:#e6586c;}.cls-247{fill:#f0845e;}.cls-248{fill:#eca186;}.cls-249{fill:#e84255;}.cls-250{fill:#d35364;}.cls-251{fill:#502f6e;}.cls-252{fill:#0c60ab;}.cls-253{fill:#59357b;}.cls-254{fill:#683e91;}.cls-255{fill:#9f163e;}.cls-256{fill:#dd265e;}.cls-257{fill:#0e447e;}.cls-258{fill:#de0a1e;}.cls-259{fill:#e6a083;}.cls-260{fill:#eaa284;}.cls-261{fill:#bd836b;}.cls-262{fill:#e64155;}.cls-263{fill:#153960;}.cls-264{fill:#eba084;}.cls-265{fill:#e95c6d;}.cls-266{fill:#e72a61;}</style></defs><path class="cls-1" d="M164.42,12.57l-1.2,1.5c-1.3-1.4-3.2-1.2-5-1.6-4-1-7.6-.6-11.7-.7-2.5-.1-4.6.9-7.1,1.2a1.51,1.51,0,0,0-1.4.9,17.55,17.55,0,0,1-3-2.4A44.3,44.3,0,0,1,164.42,12.57Z"/><path class="cls-2" d="M504.12,10.27c-.9.8-1.8,1.6-2.6,2.4l-.3.3c-5.9-.9-11.6,0-17.3,1.6-6.1,2.3-11.9,6-13.9,12.5a11.48,11.48,0,0,0-1.9-.1v-.4a14.44,14.44,0,0,1,1.1-4.2c2.1-3.2,4.9-5.3,7.4-7.9l-.4-.9C484.52,9.07,495.12,8.77,504.12,10.27Z"/><path class="cls-3" d="M504.12,10.27a43.48,43.48,0,0,1,14.5,4.8c.7.2.8.7.3,1.4-.7,0-1.4.1-2.1.1-4.6-2.6-10.2-3.4-15.4-3.9C502.42,11.77,503.32,11.07,504.12,10.27Z"/><path class="cls-4" d="M5.42,11.17h.8c1.7.9,4.5,1.1,6.1,0h4c-2,2.8-7.3,2.3-10.4,2.9l-.5.1A29.94,29.94,0,0,0,5.42,11.17Z"/><path class="cls-5" d="M6.22,11.07c2,0,4-.1,6.1,0C10.72,12.17,7.92,12,6.22,11.07Z"/><path class="cls-6" d="M16.32,11.07h1.5c-.6.8-1.2,1.6-1.8,2.3a14,14,0,0,1-7.5,1.7,20,20,0,0,0-2.6-1C9,13.37,14.32,13.87,16.32,11.07Z"/><path class="cls-7" d="M17.82,11.07c1.8,0,3.6,0,5.3.1-.3.9-.5,1.8-.8,2.7h-.2a42.05,42.05,0,0,0-6.2-.5C16.62,12.57,17.22,11.87,17.82,11.07Z"/><path class="cls-8" d="M23.12,11.07h2.8c-.2.8-.5,1.6-.7,2.3-.5.8-.9,1.6-1.3,2.4a5.07,5.07,0,0,0,.2-1.3,5.09,5.09,0,0,0-1.7-.7C22.62,13,22.92,12,23.12,11.07Z"/><path class="cls-9" d="M25.92,11.17c1.6-.1,3.1,0,4.7,0,0,1.3.1,2.6,0,4l-.3.2c-.1-.5-.3-1.1-.4-1.6-1.6-.1-3.2-.1-4.7-.2C25.52,12.67,25.72,11.87,25.92,11.17Z"/><path class="cls-10" d="M30.62,11.07c4.4.1,8.8-.2,13.1.4-3.5.4-7.7-.5-11.1.3l-.3,2.1c-.6.4-1.1.8-1.7,1.2A26.69,26.69,0,0,0,30.62,11.07Z"/><path class="cls-11" d="M81.82,11.07h13.7L93.92,13c-2.5-.6-5.8-.6-8.1.8-2.8,2-1.8,6.2-1.9,9.1v.2c-.7.3-1.4.5-2,.8C81.82,19.67,81.72,15.37,81.82,11.07Z"/><path class="cls-12" d="M95.52,11.17h3.3c.5.2,1,.4,1.6.6a18.26,18.26,0,0,0-1.6,1.3,13.66,13.66,0,0,0-1.9.2c-.4.4-.9.8-1.3,1.2a9.75,9.75,0,0,1-2.2-.8l.5-.6A14.62,14.62,0,0,1,95.52,11.17Z"/><path class="cls-13" d="M98.72,11.17a38.44,38.44,0,0,1,4.8,0v1.9c-1.5.7-3.2.1-4.9,0a18.26,18.26,0,0,0,1.6-1.3A11.64,11.64,0,0,0,98.72,11.17Z"/><path class="cls-14" d="M185,11.07h7.1a14.29,14.29,0,0,0,1.4,2c-1.8.4-3.5.6-4.7,2.1s-1.4,4-1.4,5.9c.1,7.6,0,15.3.1,22.9l-.8-.2a10.93,10.93,0,0,0-1.7-.5C185,32.57,184.92,21.77,185,11.07Z"/><path class="cls-15" d="M192.12,11.07h9c.6.7,1.2,1.5,1.8,2.2-2,.4-4.1.1-6.1.3l-.5.6-1.1.3c-.6-.5-1.1-1-1.7-1.5A15.63,15.63,0,0,1,192.12,11.07Z"/><path class="cls-16" d="M201.12,11.07h5.6v2.8a24.42,24.42,0,0,0-3.9-.6C202.32,12.57,201.72,11.87,201.12,11.07Z"/><path class="cls-17" d="M212.62,11.07h2.6a15.86,15.86,0,0,0,1.8,2.7c-2.1.9-2.2,2.7-3,4.5a12.67,12.67,0,0,0-1.3-1.1A31,31,0,0,1,212.62,11.07Z"/><path class="cls-18" d="M215.12,11.07h21.8c-.2,1-.3,2-.5,3-5.6.4-11.2,0-16.8.2-.2.6-.3,1.1-.5,1.7-.8-.7-1.5-1.4-2.3-2.1C216.32,13,215.72,12.07,215.12,11.07Z"/><path class="cls-19" d="M237,11.07h6l-.6,2.7c-2,0-4,0-6,.2A24.75,24.75,0,0,0,237,11.07Z"/><path class="cls-20" d="M243,11.07h4.7c0,.8-.1,1.7-.1,2.5a45.2,45.2,0,0,0-5.2.2Z"/><path class="cls-21" d="M247.72,11.07h5.1c0,.6-.1,1.2-.1,1.8l-.4.8h-4.6Z"/><path class="cls-22" d="M252.82,11.07h5.8l-.6,1.8a18.83,18.83,0,0,1-5.3-.1C252.72,12.27,252.82,11.67,252.82,11.07Z"/><path class="cls-23" d="M258.62,11.07h13.5v3.4a10.56,10.56,0,0,0-5,.4,50.26,50.26,0,0,0-9.5.1c.1-.7.3-1.4.4-2.1Z"/><path class="cls-24" d="M295.82,11.07H317a7.74,7.74,0,0,1,.7,1.6,36.83,36.83,0,0,0-6.6-.6c-4,.1-7.9-.5-11.7.8a5.25,5.25,0,0,0-2.2,1.7c-.8-.5-1.5-1-2.3-1.5A4,4,0,0,1,295.82,11.07Z"/><path class="cls-25" d="M348.92,11.07c3.5,0,7,.1,10.6,0a19.64,19.64,0,0,1-3.3,1.5l-4,.9c-1.1.2-2.2.4-3.4.5C348.92,13.07,348.82,12.07,348.92,11.07Z"/><path class="cls-26" d="M359.52,11.07h11v2.3c-4.7-.9-9.6-.3-14.3-.7A20.09,20.09,0,0,0,359.52,11.07Z"/><path class="cls-27" d="M405.92,11.07c7.8.1,15.7,0,23.5,0a20.68,20.68,0,0,1-5.3,2.8c-1.8-.9-3.6-.6-5.6-.6-2.5,0-4.7-.2-7.1.6a3.86,3.86,0,0,0-2.7,3.4l1.1.6a14.28,14.28,0,0,1-4.1.4C405.92,16,405.62,13.37,405.92,11.07Z"/><path class="cls-28" d="M429.42,11.07c4.1,0,8.2.1,12.2,0a40.22,40.22,0,0,1-4.7,3.4c-.6-1.2-2-.6-3.1-.8-2.7-.2-4.6,1.1-6.9,2.2a14.32,14.32,0,0,0-6.5.6c-2.9,1-5.9,1.4-8.9,2.2-1.4.3-2.6,1.6-3.6,2.5a22.62,22.62,0,0,0-.1,5.2c0,1.1.5,1.2,1.4,1.5a8.51,8.51,0,0,1-1.7.6,15.43,15.43,0,0,1-1.7.5V18.17a28.45,28.45,0,0,0,4.1-.4,37.78,37.78,0,0,0,14.3-4A17.19,17.19,0,0,0,429.42,11.07Z"/><path class="cls-29" d="M441.72,11.07c1.6-.1,3.2.1,4.7,0-.5.6-.9,1.3-1.4,1.9-.7.3-1.4.7-2.1,1-2.6,0-3.9,2.1-6.4,1l.5-.5A50.87,50.87,0,0,0,441.72,11.07Z"/><path class="cls-30" d="M446.42,11.07h3.7l.4.1c-.8.6-1.6,1.3-2.4,2-1,0-2.1-.1-3.1-.2C445.52,12.37,445.92,11.67,446.42,11.07Z"/><path class="cls-31" d="M450.12,11.07c2.7-.1,5.5,0,8.2,0,0,.7.1,1.4.1,2.1-.6.4-1.3.8-1.9,1.2a4.44,4.44,0,0,0-.8-1.1,9.08,9.08,0,0,0-2.3.3h-1.9c.7-.7,1.4-1.4,2-2.1l-2.5-.3-.5-.1Z"/><path class="cls-32" d="M32.62,11.77c3.4-.8,7.5.1,11.1-.3a39,39,0,0,1,11.1,3.1c0,.6-.1,1.3-.1,1.9-3.6-.9-6.9-2.1-10.7-2.2a57.24,57.24,0,0,0-11.7-.3C32.42,13.17,32.52,12.47,32.62,11.77Z"/><path class="cls-33" d="M135,11.47a31.51,31.51,0,0,0,3,2.4c.5.4,1.1.8,1.6,1.2-.4.3-.9.5-1.4.8-1.1-.7-1.9-1.4-3.3-1-2.4.9-4.6,2.4-6.9,3.5-.6-.8-1.3-1.7-1.9-2.5A33.57,33.57,0,0,1,135,11.47Z"/><path class="cls-34" d="M146.52,11.77c4.1.1,7.7-.3,11.7.7,1.8.5,3.7.2,5,1.6a8.65,8.65,0,0,0-.7,1,8.34,8.34,0,0,1-1.2.8,47.38,47.38,0,0,0-18-1,2.25,2.25,0,0,0-1.8,1.3c-.6-.4-1.3-.8-1.9-1.2s-1.1-.8-1.6-1.2a1.94,1.94,0,0,1,1.4-.9C141.82,12.67,144,11.67,146.52,11.77Z"/><path class="cls-35" d="M450.52,11.17l.5.1,2.5.3a19.85,19.85,0,0,1-2,2.1l-.2.2-.7.5a9,9,0,0,1-2.8-.8l.5-.4A14.16,14.16,0,0,1,450.52,11.17Z"/><path class="cls-36" d="M311,12.07a36.83,36.83,0,0,1,6.6.6c.2.5.4.9.6,1.4l-.1,1-.5.2c-2.7-1.8-5.9-1-9-1.2-3.8.2-7.1-.9-10.3,1.7-.3-.3-.7-.6-1-.9l-.3-.3a5.25,5.25,0,0,1,2.2-1.7C303.12,11.67,307,12.27,311,12.07Z"/><path class="cls-37" d="M93.82,13l-.5.6a17.41,17.41,0,0,1-1.2,1.4,8.27,8.27,0,0,0-3.5-.1,4.57,4.57,0,0,0-2.4,6.3v.2l-2.4,1.5c.1-3-.8-7.1,1.9-9.1C88,12.37,91.32,12.37,93.82,13Z"/><path class="cls-38" d="M96.82,13.17c.6-.1,1.2-.1,1.9-.2,1.7.1,3.4.7,4.9,0-.1,9.7-.1,19.4,0,29.2l-.5.3c-.4-7.9.1-15.8-.2-23.7a2.78,2.78,0,0,0-2.8-2.7,14.26,14.26,0,0,1-4.6-.7l.2-.9A4.49,4.49,0,0,1,96.82,13.17Z"/><path class="cls-39" d="M164.42,12.57a32.33,32.33,0,0,1,11.3,8c.6.7,1.2,1.2,1.3,2.1a33.15,33.15,0,0,1-2.6,2.7c-.1-.9.2-1.8-.4-2.5-1.6-2-3.9-3.3-6.1-4.6a9,9,0,0,0-3.2-1.3c-2.1,1.9-3.8,4-6.3,5.3-3.1,1.8-6.6,1.4-9.7,0a98.53,98.53,0,0,1-9.3-5.5c-.4-.3-.8-.7-1.2-1,.5-.3.9-.5,1.4-.8.6.4,1.3.8,1.9,1.2,3,1.8,5.6,3.8,9,4.9,3.4,1.5,6.6.1,9.3-2,1.2-1.1,2.9-2.2,2.7-4,.2-.3.5-.7.7-1Z"/><path class="cls-40" d="M252.72,12.87a23.5,23.5,0,0,0,5.3.1,15.52,15.52,0,0,0-.4,2.1c-.1.8-.3,1.7-.4,2.5a7.61,7.61,0,0,0-.3-2.1c-1.5-.1-3.1,0-4.6-.1v-1.7Z"/><path class="cls-41" d="M356.22,12.57c4.8.4,9.6-.2,14.3.7v2.5c-3-1.7-6.1-.9-9.5-1.1-2.2.1-5.3-.5-7,1.2-1.4,1.1-1.2,3.3-1.5,4.9l-.8-.1-1.2-.2a11.84,11.84,0,0,1,1.7-6.9C353.52,13.17,354.92,13,356.22,12.57Z"/><path class="cls-42" d="M445,13c1,.1,2.1.1,3.1.2l-.5.4c-1,.8-1.8,1.6-2.8,2.4a10.59,10.59,0,0,0-1.2,1,4.89,4.89,0,0,0-2.9-.8c.7-.6,1.4-1.3,2.1-2A16.37,16.37,0,0,1,445,13Z"/><path class="cls-43" d="M501.22,13c-.7.7-1.3,1.4-2,2.1l-.6.7c-3,0-6-.3-8.9.4-2.7.7-5.3,1.1-7.6,2.4a28,28,0,0,0-5.2,3.2c-1.9,1.5-3,4.1-4.3,6.2l-2-.3-.5-.4c2-6.6,7.8-10.3,13.9-12.5C489.62,13,495.32,12,501.22,13Z"/><path class="cls-44" d="M501.22,13l.3-.3c5.1.5,10.8,1.3,15.4,3.9-.8.2-1.7.5-2.5.7l-1.5.3a45.44,45.44,0,0,0-13.7-2.5C499.82,14.37,500.52,13.67,501.22,13Z"/><path class="cls-45" d="M16,13.37a42.05,42.05,0,0,1,6.2.5,11.18,11.18,0,0,1-1.1,2.5c-1.9-.6-3.6-.2-5.6-.2-1.3.1-2.7-.1-3.8.7a6.28,6.28,0,0,0-1.2,3.7,8.45,8.45,0,0,1-1.7-.5c-.5-.2-.9-.4-1.4-.6.5-1.4.8-2.9,1.2-4.3A15,15,0,0,0,16,13.37Z"/><path class="cls-46" d="M25.22,13.47c1.6.2,3.2.1,4.7.2a9.36,9.36,0,0,1,.4,1.6l-.3,1.1a37.25,37.25,0,0,1-4.7.4c-.9.2-1.6.9-2.5,1,.3-.7.6-1.3.9-2A18.19,18.19,0,0,0,25.22,13.47Z"/><path class="cls-47" d="M93.32,13.57a19.45,19.45,0,0,0,2.2.8l-.2.9a12.52,12.52,0,0,0-2.3,2.3,38.76,38.76,0,0,1-6.3,6.5,23.81,23.81,0,0,1-.5-2.6v-.2a35.27,35.27,0,0,0,5.9-6.3A17.41,17.41,0,0,0,93.32,13.57Z"/><path class="cls-48" d="M193.52,13.07c.6.5,1.1,1,1.7,1.5l.3.5a22.09,22.09,0,0,0-3.7.8,3.89,3.89,0,0,0-2.1,3.4v22.3c0,1-.1,2.1-.2,3.1-.7-.2-1.4-.5-2-.7-.1-7.6,0-15.3-.1-22.9,0-1.9.2-4.3,1.4-5.9S191.72,13.57,193.52,13.07Z"/><path class="cls-49" d="M196.72,13.67c2-.2,4.1.1,6.1-.3a18,18,0,0,0,3.9,3.9v6.4l-.8-.7c0-2.1.8-4-.9-5.6-1.4-1.8-3.7-1-5.7-.9l-3-2.1Z"/><path class="cls-50" d="M202.92,13.37a26.29,26.29,0,0,1,3.9.6v3.3A18,18,0,0,1,202.92,13.37Z"/><path class="cls-51" d="M247.62,13.57c-.2,1-.4,2.1-.6,3.1a8.74,8.74,0,0,0-5.3.7l.2-.9.6-2.7A43.49,43.49,0,0,1,247.62,13.57Z"/><path class="cls-52" d="M247.62,13.57a35.3,35.3,0,0,0,4.6,0v1.7c-.1.5-.3,1-.4,1.5-1.6-.1-3.2-.1-4.8-.1C247.22,15.67,247.42,14.67,247.62,13.57Z"/><path class="cls-53" d="M294.82,13.17c.8.5,1.5,1,2.3,1.5l.3.3c-.7.4-1.3.7-1.6,1.5-2,3.8-3.3,7.9-5.2,11.8a6.65,6.65,0,0,0-.6-3.4C291.62,21,293.22,17,294.82,13.17Z"/><path class="cls-54" d="M352.22,13.47a12,12,0,0,0-1.7,6.9l-1.7-.1V14C350,13.87,351.12,13.67,352.22,13.47Z"/><path class="cls-55" d="M418.62,13.27c2,0,3.7-.3,5.6.6a39.69,39.69,0,0,1-14.3,4l-1.1-.6a4,4,0,0,1,2.7-3.4A24.1,24.1,0,0,1,418.62,13.27Z"/><path class="cls-56" d="M433.92,13.67c1.2.1,2.5-.4,3.1.8l-.5.5a87,87,0,0,1-15.1,8.7c-3.4,1.3-6.9,3.1-10.5,3.7a9.34,9.34,0,0,1-1.3-1.5c.1-1.7.4-3.4.4-5.1,5.9-1.1,11.5-2,16.9-4.9C429.32,14.77,431.22,13.47,433.92,13.67Z"/><path class="cls-57" d="M447.62,13.47a9.85,9.85,0,0,0,2.8.8c-1,.7-2,1.5-3,2.2-.9-.2-1.8-.4-2.6-.6C445.82,15.07,446.72,14.27,447.62,13.47Z"/><path class="cls-58" d="M451.22,13.77l.2-.2h1.9a24.05,24.05,0,0,0-2.4,2.1c-4.2,3.5-8.4,6.9-12.8,10.1a20.18,20.18,0,0,0-2.7,2.4h-3a19.42,19.42,0,0,1,3.1-2.6c4.1-2.8,8-6,11.9-9.1,1-.7,2-1.5,3-2.2Z"/><path class="cls-59" d="M453.32,13.57a4.73,4.73,0,0,1,2.3-.3,4.44,4.44,0,0,1,.8,1.1c-.8.6-1.5,1.3-2.2,1.9l-.2-.1c-1-.3-2.1-.4-3.1-.6C451.72,15,452.52,14.27,453.32,13.57Z"/><path class="cls-60" d="M458.32,13.17v3.2c-.7.3-1.3.6-2,.9l-2.1-.9a20,20,0,0,1,2.2-1.9C457.12,14,457.72,13.57,458.32,13.17Z"/><path class="cls-61" d="M5.42,14.07l.5-.1c.9.3,1.7.7,2.6,1-.4,1.4-.7,2.9-1.2,4.3-.7-.3-1.3-.5-2-.8C5.42,17.07,5.42,15.57,5.42,14.07Z"/><path class="cls-62" d="M22.22,13.87h.2a8.65,8.65,0,0,1,1.7.7c-.1.4-.1.8-.2,1.3-.3.7-.6,1.3-.9,2a10.75,10.75,0,0,1-5.7,5.2,50.45,50.45,0,0,1-5.5,0l-3.6-1.5-.2-.2a6.38,6.38,0,0,0,.8-1.4,10.93,10.93,0,0,0,1.7.5,10.58,10.58,0,0,0,6.1.1,9,9,0,0,0,4.5-4.3A12.81,12.81,0,0,0,22.22,13.87Z"/><path class="cls-63" d="M32.32,13.87c-.1,1.2-.2,2.4-.4,3.6-.3,2.3-.6,4.7-.9,7a35.53,35.53,0,0,0-.3,4.6h-2c.7-4.2.9-8.5,1.4-12.7l.3-1.1.3-.2C31.22,14.67,31.82,14.27,32.32,13.87Z"/><path class="cls-64" d="M32.32,13.87a65.38,65.38,0,0,1,11.7.3c3.8.2,7.1,1.3,10.7,2.2l.6.6a20.48,20.48,0,0,1,.5,2.4c-2.4-.7-4.5-1.6-6.9-2.1a63.56,63.56,0,0,0-16.3-.9,5.5,5.5,0,0,0-.7.9A17.61,17.61,0,0,0,32.32,13.87Z"/><path class="cls-65" d="M216.92,13.87c.7.7,1.5,1.4,2.3,2.1.2.3.5.5.7.8-.6.4-1.5.7-1.8,1.4-.2,1.6-.1,3.3-.3,4.9l-1-1c-.6-.6-1.1-1.2-1.7-1.9l-1.2-1.8C214.72,16.47,214.82,14.77,216.92,13.87Z"/><path class="cls-66" d="M219.72,14.27c5.6-.2,11.2.2,16.8-.2-.3.7-.5,1.5-.8,2.2-1.4,2.5-3.3,4.4-6.3,4.8-3.7.5-6.8-2-9.4-4.3-.2-.3-.5-.5-.7-.8A5.26,5.26,0,0,1,219.72,14.27Z"/><path class="cls-67" d="M236.42,14.07a40.12,40.12,0,0,1,6-.2,26.14,26.14,0,0,1-.6,2.7c-2.1,0-4.2-.1-6.2-.2C235.92,15.57,236.22,14.77,236.42,14.07Z"/><path class="cls-68" d="M308.72,14.17c3.2.2,6.3-.7,9,1.2-1,.3-2.1.6-3.2.9l-1,.3a75.4,75.4,0,0,0-9.5-.3,6.86,6.86,0,0,0-3.9,1.4c-.5-.4-1-.9-1.5-1.3l-.2-.5C301.62,13.17,304.92,14.37,308.72,14.17Z"/><path class="cls-69" d="M318.32,14.07c1.7,4.3,3.5,8.5,5.2,12.7-.4.5-.8,1-1.2,1.6-.8-2-1.5-4.1-2.5-6.1-.8-1.6-1.3-3.7-2.5-5.1-.6-.8-1.8-.8-2.7-1,1-.3,2.1-.6,3.2-.9l.5-.2Z"/><path class="cls-70" d="M442.92,14c-.7.7-1.4,1.4-2.1,2-5,3.4-9.9,6.9-15.5,9.4a79.78,79.78,0,0,1-14,5.5c-1,.3-1.9.5-2.9.8l-.7.1c.7-1.5,2.1-2.4,2.8-3.9.1-.2.2-.3.3-.5,3.6-.6,7.1-2.3,10.5-3.7a90.91,90.91,0,0,0,15.1-8.7C438.92,16.07,440.32,14,442.92,14Z"/><path class="cls-71" d="M476.42,13.67l.4.9c-2.5,2.6-5.3,4.7-7.4,7.9a11.86,11.86,0,0,0-1.1,4.2c-.7-.4-1.4-.7-2-1.1A20.47,20.47,0,0,1,476.42,13.67Z"/><path class="cls-72" d="M54.82,14.57a31.48,31.48,0,0,1,10.9,7.9c-1.4.5-1.9-.4-2.9-1.2-2.2-2-4.8-3-7.4-4.2l-.6-.6A12.05,12.05,0,0,1,54.82,14.57Z"/><path class="cls-73" d="M92.12,15.07a35.27,35.27,0,0,1-5.9,6.3,4.65,4.65,0,0,1,2.4-6.3A6,6,0,0,1,92.12,15.07Z"/><path class="cls-74" d="M134.92,14.87c1.4-.4,2.2.3,3.3,1,.4.3.8.7,1.2,1-3.4,1.4-6.5,2.1-9.1,4.8-.3-.4-.6-.9-.9-1.3l-1.2-1.8-.1-.2A72.43,72.43,0,0,1,134.92,14.87Z"/><path class="cls-75" d="M161.32,15.87a15.36,15.36,0,0,1-6,4.7,13.43,13.43,0,0,1-4.9.5c-3.4-1-6-3.1-9-4.9.5-.9.8-1.2,1.8-1.3A49.9,49.9,0,0,1,161.32,15.87Z"/><path class="cls-76" d="M195.22,14.57l1.1-.3,3,2.1a57.82,57.82,0,0,0,6.6,6.5l.8.7c0,1.3.1,2.6.1,3.8a11.41,11.41,0,0,1-2.1-2.8c-2.5-3.7-5.8-6.6-9.2-9.5Z"/><path class="cls-77" d="M267.12,14.87c-2.6,3.1-2.4,7.5-.9,11.1,1.5,1.9,3.4,3.4,6,3-4.8.1-9.7,0-14.5,0a39.7,39.7,0,0,1-.5-11.4c.1-.8.3-1.7.4-2.5A43,43,0,0,1,267.12,14.87Z"/><path class="cls-78" d="M272.12,14.57V29c-2.6.4-4.4-1.1-6-3-1.5-3.5-1.7-7.9.9-11.1A9.85,9.85,0,0,1,272.12,14.57Z"/><path class="cls-79" d="M361,14.67c3.4.2,6.5-.6,9.5,1.1v2.3a16.29,16.29,0,0,1-1.7,1.1c-.5-1.2-1-2-2.4-2-2.7,0-5.5.1-8.2,0s-2.9,1.9-3.3,3.9l-2.4-.3c.3-1.6.1-3.8,1.5-4.9C355.82,14.17,358.82,14.87,361,14.67Z"/><path class="cls-80" d="M95.42,15.27a12,12,0,0,0,4.6.7,2.92,2.92,0,0,1,2.8,2.7c.3,7.9-.2,15.8.2,23.7-.5.3-1.1.5-1.6.8-6,2.5-9.6,7.8-13.5,12.7.2-2.2-.4-4.4-.1-6.6.3-1.8-.2-3.5-.1-5.3.6-6.2-.2-12.5,0-18.7-.3.1-.7.2-1,.3,0-.5.1-1,.1-1.5a43.12,43.12,0,0,0,6.3-6.5A10,10,0,0,1,95.42,15.27Z"/><path class="cls-81" d="M162.52,15.07c.2,1.8-1.5,2.9-2.7,4-2.7,2.2-5.9,3.5-9.3,2a16,16,0,0,0,4.9-.5,16.11,16.11,0,0,0,6-4.7C161.72,15.67,162.12,15.37,162.52,15.07Z"/><path class="cls-82" d="M195.52,15.07c3.4,2.9,6.7,5.8,9.2,9.5.7,1,1.1,2.1,2.1,2.8-.1,5.9,0,11.9,0,17.8a7.56,7.56,0,0,1-4.4,2.3c-4.3.3-8.9-1.3-12.9-2.8a30.28,30.28,0,0,0,.2-3.1V19.27a3.89,3.89,0,0,1,2.1-3.4A22.09,22.09,0,0,1,195.52,15.07Z"/><path class="cls-83" d="M252.32,15.27c1.5.1,3.1,0,4.6.1a7.61,7.61,0,0,1,.3,2.1,39.55,39.55,0,0,0,.5,11.4c-1.4.1-3.2-.3-4.4.2v19.6c-.5,0-1.1-.1-1.6-.1a16.88,16.88,0,0,1-1.3-5.9c.1-5.1.6-10.2.7-15.3.1-3.6.5-7.1.8-10.7C252,16.37,252.12,15.87,252.32,15.27Z"/><path class="cls-84" d="M297.42,14.87c.3.3.7.6,1,.9l.2.5c-2.2,3.2-3.1,6.9-4.7,10.4-1.9,4.8-3.9,9.7-6,14.5,0,.5.1.9.1,1.4-.3.2-.6.3-.9.5-1,.4-2,.8-2.9,1.2,1-2.7,2.4-5,2.8-7.8a40,40,0,0,0,3.6-8.2c1.9-3.9,3.1-8,5.2-11.8C296.12,15.57,296.82,15.37,297.42,14.87Z"/><path class="cls-85" d="M499.22,15.07a46,46,0,0,1,13.7,2.5,37.71,37.71,0,0,0-10.9,8.6c-.5.5-.9,1-1.4,1.5-3.6-.5-7.7-.9-11.2.2-1.7.6-3.2,1.8-3,3.8,0,1.6,1.2,2.4,2.6,3l-.9,1.2c-5.6,1.6-11.3,1.9-16.9,3.5a9.83,9.83,0,0,0-1.6.5c-.4-4.2-.6-8.3.9-12.2l2,.3c5.2,1.2,10.9,1.4,15.6-1.3,4.5-2.6,7.1-6.9,10.5-10.8Z"/><path class="cls-86" d="M15.52,16.07c2,0,3.7-.4,5.6.2a9.4,9.4,0,0,1-4.5,4.3,10.55,10.55,0,0,1-6.1-.1,6.07,6.07,0,0,1,1.2-3.7C12.82,16,14.22,16.07,15.52,16.07Z"/><path class="cls-87" d="M126.12,15.87c.6.9,1.3,1.7,1.9,2.5l.1.2c-2.9.7-5.1,3.9-7.1,5.9l-.2.2a7.62,7.62,0,0,0-1.3-2.9A33.61,33.61,0,0,1,126.12,15.87Z"/><path class="cls-88" d="M427,15.87c-5.4,3-11,3.8-16.9,4.9a43.79,43.79,0,0,1-.4,5.1,17.38,17.38,0,0,0,1.3,1.5c-.1.2-.2.3-.3.5h-1.4c-.8-.4-1.4-.4-1.4-1.5a22.62,22.62,0,0,1,.1-5.2,8.12,8.12,0,0,1,3.6-2.5,68,68,0,0,0,8.9-2.2A13,13,0,0,1,427,15.87Z"/><path class="cls-89" d="M444.92,15.87c.9.2,1.8.4,2.6.6-4,3.1-7.8,6.3-11.9,9.1a19.42,19.42,0,0,0-3.1,2.6c-1.4.1-2.7.3-4-.4a137.76,137.76,0,0,0,15.3-11C444.12,16.57,444.52,16.17,444.92,15.87Z"/><path class="cls-90" d="M450.92,15.77a15.47,15.47,0,0,1,3.1.6c-3.7,3.3-7.4,6.5-11.3,9.5a22.55,22.55,0,0,1-3.6,2.4,22.85,22.85,0,0,1-3.7,0,21,21,0,0,1,2.7-2.4C442.52,22.67,446.72,19.17,450.92,15.77Z"/><path class="cls-91" d="M498.62,15.77c-3.3,3.8-5.9,8.2-10.5,10.8s-10.4,2.5-15.6,1.3c1.3-2.1,2.4-4.7,4.3-6.2a34.56,34.56,0,0,1,5.2-3.2c2.4-1.3,5-1.6,7.6-2.4C492.62,15.37,495.52,15.67,498.62,15.77Z"/><path class="cls-92" d="M30.12,16.47c-.5,4.2-.6,8.5-1.4,12.7-.7.1-1.8-.4-1.6.7v4c-1.4,1.1-2.8,1.9-4.7,1.5-4.1-.7-8.1-3.5-11.3-6,0-2-.4-4.6.6-6.5a50.45,50.45,0,0,0,5.5,0,10.37,10.37,0,0,0,5.7-5.2c.9-.2,1.6-.9,2.5-1A24.67,24.67,0,0,0,30.12,16.47Z"/><path class="cls-93" d="M32.72,16.57a59.38,59.38,0,0,1,16.3.9,60.47,60.47,0,0,1,6.9,2.1c.4.7.7,1.5,1.1,2.2,2.1,5.6,4.9,11,7,16.6.4,1.4.9,2.9-.3,4-1.5,1.2-4,.8-5.8.7a19.93,19.93,0,0,0-7.3-12.4A19.27,19.27,0,0,0,40.22,27c-3-.4-5.6.5-8.6-.1a18.46,18.46,0,0,1-.4-2.3c.3-2.3.6-4.7.9-7A2.07,2.07,0,0,1,32.72,16.57Z"/><path class="cls-94" d="M199.32,16.37c2-.1,4.2-.8,5.7.9,1.7,1.6.9,3.6.9,5.6A67.66,67.66,0,0,1,199.32,16.37Z"/><path class="cls-91" d="M235.62,16.27c2.1.1,4.2.2,6.2.2l-.2.9c-1,4.5-3,8.6-6.6,11.4a12.7,12.7,0,0,1-3.7,1.8,8.6,8.6,0,0,0-.1-1.6c-2.3-.1-4.6,0-6.9-.1-2.2-2-4.6-3.8-6.6-6,.2-1.6.2-3.3.3-4.9.3-.7,1.2-1,1.8-1.4,2.6,2.3,5.7,4.8,9.4,4.3C232.32,20.67,234.22,18.77,235.62,16.27Z"/><path class="cls-95" d="M247,16.67a62,62,0,0,1-3.3,14,16.36,16.36,0,0,1-6.2,8c-.1-1.7,0-3.4-.2-5s-1.4-3.3-2.1-4.8a19.83,19.83,0,0,0,6.6-11.4C243.42,16.47,245.22,16.57,247,16.67Z"/><path class="cls-96" d="M298.62,16.27c.5.4,1,.9,1.5,1.3,1.6,1.4,3.4,3,5.7,2.3,2.7-.8,5.2-2.3,7.8-3.4l1-.3c.9.2,2.1.2,2.7,1,1.2,1.4,1.7,3.4,2.5,5.1a65,65,0,0,1,2.5,6.1c-3,4.5-5.5,9.4-8.3,14-1.1-2.5-2-5.5-4.8-6.4-1.3-.4-1.3-.2-1.8,1a25.15,25.15,0,0,0-1.2-2.9c-1.6,4.3-3.1,8.7-4.7,13-.1-2.8-.4-5.7-.5-8.5v-.1a22.47,22.47,0,0,0-2.1-1.2,10.23,10.23,0,0,0-3.6,1.5c-2.3,1.4-4.7,2.7-7.1,3.9,0-.5-.1-.9-.1-1.4,2.1-4.8,4.1-9.6,6-14.5C295.52,23.17,296.42,19.57,298.62,16.27Z"/><path class="cls-97" d="M304,16.27a50.33,50.33,0,0,1,9.5.3c-2.6,1.1-5.1,2.6-7.8,3.4-2.3.7-4-1-5.7-2.3A7.44,7.44,0,0,1,304,16.27Z"/><path class="cls-82" d="M440.82,16a6,6,0,0,1,2.9.8,118.57,118.57,0,0,1-15.3,11,5.72,5.72,0,0,0-.8.7l-.3.2c-5.2,3-10.3,6.2-15.6,9.1a40.58,40.58,0,0,1-.3-7,79.78,79.78,0,0,0,14-5.5C430.92,22.87,435.82,19.47,440.82,16Z"/><path class="cls-98" d="M454,16.27l.2.1,2.1.9c-3.8,3.3-7.8,6.5-11.5,9.9a6.75,6.75,0,0,0,.2,1.4c-5.8,0-11.6-.1-17.4.1.3-.2.5-.5.8-.7a7.76,7.76,0,0,0,4,.4h3c1.2,0,2.5.1,3.7,0a28.16,28.16,0,0,0,3.6-2.4C446.62,22.77,450.32,19.57,454,16.27Z"/><path class="cls-99" d="M458.32,16.37v12.1c-4.4.1-8.9,0-13.3,0-.1-.5-.1-.9-.2-1.4,3.8-3.3,7.7-6.6,11.5-9.9A11.92,11.92,0,0,0,458.32,16.37Z"/><path class="cls-100" d="M516.92,16.47a14.77,14.77,0,0,0,2.1-.1c-.5,1.4-1.1,2.8-1.7,4.3a16.26,16.26,0,0,0-3-3.4C515.22,17,516,16.77,516.92,16.47Z"/><path class="cls-101" d="M55.32,17.07c2.7,1.2,5.2,2.2,7.4,4.2,1,.7,1.6,1.7,2.9,1.2a32,32,0,0,1,7.6,17.4c1,7.8,0,16.2-3.8,23.1-.6-.1-1.2-.2-1.7-.3,1.5-.9,1.4-2.5,2-4,1-2.6,1.1-5.3,1.9-7.9,1-3.9-.1-7.2-.9-11a26.11,26.11,0,0,0-5.5-12.2c-1.5-2.1-3.6-3.4-5.6-4.9a6.6,6.6,0,0,0-2.6-1.1c-.4-.7-.7-1.5-1.1-2.2C55.72,18.67,55.52,17.87,55.32,17.07Z"/><path class="cls-102" d="M139.42,16.87a78.39,78.39,0,0,0,9.3,5.5c3.1,1.4,6.7,1.8,9.7,0,2.6-1.3,4.2-3.4,6.3-5.3a8,8,0,0,1,3.2,1.3c2.2,1.3,4.5,2.6,6.1,4.6.7.7.4,1.7.4,2.5-2.5,2.5-5.1,4.9-7.7,7.3a7.74,7.74,0,0,0-2.6-1.2c-1.9-.5-3-1.9-4.8-2.6-2.9-1-5.6-2.1-8.8-1.9-1.5.2-3.8.1-4.8,1.4a14.57,14.57,0,0,0-8.8,5,85.47,85.47,0,0,0-6.7-11.8C132.92,19,136.12,18.27,139.42,16.87Z"/><path class="cls-92" d="M247,16.67c1.6,0,3.2,0,4.8.1-.3,3.6-.7,7.1-.8,10.7-.2,5.1-.7,10.2-.7,15.3a16.88,16.88,0,0,0,1.3,5.9c-.2.9-.5,1.9-.7,2.8-.4,0-.8-.1-1.2-.1-1.5-.5-2.9-1.3-4.5-1.4a55.43,55.43,0,0,0-7.1.3,7.57,7.57,0,0,0-1.5.1c.1-3.7.1-7.5,0-11.2a8.65,8.65,0,0,1,1-.7,16.36,16.36,0,0,0,6.2-8A60.47,60.47,0,0,0,247,16.67Z"/><path class="cls-82" d="M358.22,17.17c2.8.1,5.5,0,8.2,0,1.4,0,1.9.9,2.4,2-4,2.4-8.5,2.7-13,2l-.9-.1C355.42,19.07,355.72,17.07,358.22,17.17Z"/><path class="cls-103" d="M212.52,17.27a15,15,0,0,1,1.3,1.1l1.2,1.8a20.08,20.08,0,0,0,.2,8.8,24.37,24.37,0,0,1-2.7-.1C212.52,25.07,212.42,21.17,212.52,17.27Z"/><path class="cls-90" d="M512.92,17.57l1.5-.3a16.26,16.26,0,0,1,3,3.4c-.8,2.1-1.6,4.3-2.5,6.4a20.88,20.88,0,0,0-4.1,1.7c-2.7-1.6-5.7-2.1-8.7-2.6A34.82,34.82,0,0,1,512.92,17.57Z"/><path class="cls-102" d="M370.62,18.07c0,11.6.1,23.1,0,34.7-2.8,2.3-4.8,5.7-6.8,8.7-3.3,5.6-7.2,11.4-9.1,17.7l-2.7-.3c-.1-3.6,0-7.2,0-10.8a4.45,4.45,0,0,1,.3-2.3c2.4-4.4,5.1-9.2,6.2-14.1a32.86,32.86,0,0,0,.6-9.4c-.2-3.6-1.8-6.5-3.9-9.4a8.63,8.63,0,0,0,.2-2.8,51.41,51.41,0,0,1,.4-8.8c4.5.7,9,.4,13-2Z"/><path class="cls-104" d="M5.42,18.57c.7.3,1.3.5,2,.8.5.2.9.4,1.4.6-.3.5-.5.9-.8,1.4-.8-.3-1.6-.6-2.5-1A10.87,10.87,0,0,1,5.42,18.57Z"/><path class="cls-105" d="M128.22,18.57l1.2,1.8c-3,1.9-5.3,4.7-7.5,7.3l-.4-.8c-.1-.8-.3-1.6-.4-2.3C123.12,22.47,125.32,19.27,128.22,18.57Z"/><path class="cls-85" d="M456.72,19.27c.2,2,.7,5.7-1.1,7.1-2.4,1-5.6.5-8.1.4a38.76,38.76,0,0,1,6-5.5A15.5,15.5,0,0,1,456.72,19.27Z"/><path class="cls-106" d="M5.42,20.27c.8.3,1.6.6,2.5,1l.2.2c-.1,1.8-.1,3.7-.2,5.5-.8-.5-1.7-1-2.5-1.5C5.42,23.77,5.32,22.07,5.42,20.27Z"/><path class="cls-82" d="M129.42,20.37c.3.4.6.9.9,1.3a85.47,85.47,0,0,1,6.7,11.8,16.25,16.25,0,0,0-3.3,7.6,23.55,23.55,0,0,0,1.7,13.9c-2.4.6-4.7.8-6.9,2.2-3,2-5.5,5-8,7.5-1.7-3.9-3.3-7.6-3.8-11.9-.1-2-.1-4-.4-6.1.1-2.7.8-5.4.9-8.1,1.8-1.2,3.4-2.4,4.1-4.5a22.78,22.78,0,0,0,.5-6.4A37.48,37.48,0,0,1,129.42,20.37Z"/><path class="cls-107" d="M215.12,20.17c.6.6,1.1,1.2,1.7,1.9a10,10,0,0,0,.9,7h-2.4A20.6,20.6,0,0,1,215.12,20.17Z"/><path class="cls-108" d="M348.82,20.37l1.7.1,1.2.2a50.11,50.11,0,0,1-.2,9.5l-2.7-1.5Z"/><path class="cls-109" d="M351.72,20.57l.8.1,2.4.3.9.1a52.35,52.35,0,0,0-.4,8.8,13.2,13.2,0,0,1-.2,2.8l-.8.1a11.46,11.46,0,0,0-2.2-2.2c-.2-.2-.5-.4-.7-.6A48.88,48.88,0,0,0,351.72,20.57Z"/><path class="cls-110" d="M8.12,21.47a27.49,27.49,0,0,0,3.6,1.5c-1,1.8-.6,4.4-.6,6.5h-.3c-1-.8-2-1.7-2.9-2.5C8,25.17,8,23.27,8.12,21.47Z"/><path class="cls-92" d="M56.92,21.67a6,6,0,0,1,2.6,1.1c2,1.6,4.1,2.8,5.6,4.9a24.27,24.27,0,0,1,5.5,12.2c.8,3.8,1.9,7,.9,11-.8,2.6-.9,5.3-1.9,7.9-.6,1.5-.5,3.1-2,4-5-1-8.9-3.6-13.5-5.4v-.3A22.78,22.78,0,0,0,55.82,43a10.87,10.87,0,0,1,1.8.1c1.8,0,4.4.5,5.8-.7s.7-2.6.3-4C61.92,32.67,59,27.37,56.92,21.67Z"/><path class="cls-111" d="M86.32,21.47a23.81,23.81,0,0,0,.5,2.6l-2.4,1.2-.6-2.1V23C84.62,22.47,85.42,22,86.32,21.47Z"/><path class="cls-112" d="M119.52,21.77a7.62,7.62,0,0,1,1.3,2.9c-3,2-4.1,5-5.5,8.1-1,2.3-1.3,4.7-2.3,7l-1.4.3A36.71,36.71,0,0,1,119.52,21.77Z"/><path class="cls-113" d="M216.82,22l1,1c2,2.2,4.4,3.9,6.6,6h-6.7A10,10,0,0,1,216.82,22Z"/><path class="cls-114" d="M83.82,23.17l.6,2.1a10.93,10.93,0,0,0-.5,1.7c-.7.2-1.3.3-2,.5.1-1.2-.2-2.3-.1-3.5A11.92,11.92,0,0,1,83.82,23.17Z"/><path class="cls-115" d="M86.72,24.07c0,.5-.1,1-.1,1.5-.8.9-1.2,1.3-1.1,2.6,0,10-.1,20.1.1,30.1l-1,1-.4.3c-.5-3.5-.2-7.2-.2-10.8-.1-7.2.1-14.5-.1-21.7.2-.6.3-1.2.5-1.7C85.22,24.87,85.92,24.47,86.72,24.07Z"/><path class="cls-116" d="M31.12,24.57a18.46,18.46,0,0,0,.4,2.3c2.9.6,5.6-.3,8.6.1a19.27,19.27,0,0,1,10.4,3.7,19.67,19.67,0,0,1,7.3,12.4A10.87,10.87,0,0,1,56,43l-1.1-.2c-.9-4-2.9-7.8-6.4-10a1.71,1.71,0,0,0-1.7,0,14.17,14.17,0,0,0-5.4-2.9c-3.3-1-7.1-.5-10.6-.6A34.83,34.83,0,0,1,31.12,24.57Z"/><path class="cls-117" d="M120.82,24.67l.2-.2c.1.8.3,1.6.4,2.3-.1.5-.2,1-.3,1.4-.4.1-.8.3-1.2.4a28.8,28.8,0,0,0-3.9,10.2l-.9.4c-.7.2-1.4.4-2,.6.9-2.3,1.3-4.7,2.3-7C116.72,29.67,117.82,26.67,120.82,24.67Z"/><path class="cls-118" d="M87.62,25.27c-.2,6.2.6,12.5,0,18.7-.1,1.8.4,3.5.1,5.3-.3,2.2.3,4.4.1,6.6a8.65,8.65,0,0,0-.7,1c-.5.5-1.1.9-1.6,1.4-.1-10,0-20.1-.1-30.1-.1-1.3.3-1.7,1.1-2.6A8.11,8.11,0,0,0,87.62,25.27Z"/><path class="cls-119" d="M290,24.77a5.75,5.75,0,0,1,.6,3.4,42.57,42.57,0,0,1-3.6,8.2,22.56,22.56,0,0,1-2.2,1.1C286.52,33.27,288.22,29.07,290,24.77Z"/><path class="cls-120" d="M5.42,25.47c.8.5,1.7,1,2.5,1.5,1,.9,1.9,1.7,2.9,2.5-1.3.3-2.7-.9-3.9-1.3-.1,2.2,0,4.4-.3,6.6-.4-.3-.7-.6-1.1-.9C5.42,31.07,5.42,28.27,5.42,25.47Z"/><path class="cls-121" d="M466.12,25.47c.7.4,1.4.8,2,1.1V27c-1.7,4.3-1.3,9.5-.8,14l-.7.3A22.61,22.61,0,0,1,466.12,25.47Z"/><path class="cls-122" d="M502,26.17c3,.5,6,1,8.7,2.6-.7.5-1.4,1-2.1,1.4a45.25,45.25,0,0,0-7.9-2.5A17.38,17.38,0,0,1,502,26.17Z"/><path class="cls-106" d="M83.82,27c.2,7.2,0,14.5.1,21.7.1,3.6-.2,7.3.2,10.8-.8.6-1.6,1.2-2.4,1.7,0-11.2-.1-22.5.1-33.7C82.52,27.27,83.22,27.17,83.82,27Z"/><path class="cls-123" d="M121.52,26.87l.4.8a27.65,27.65,0,0,1-.5,6.4c-.7,2.2-2.3,3.3-4.1,4.5l-1.3.2a31.69,31.69,0,0,1,3.9-10.2c.4-.1.8-.3,1.2-.4A5,5,0,0,0,121.52,26.87Z"/><path class="cls-124" d="M150.62,27c3.2-.3,5.8.8,8.8,1.9,1.8.7,3,2.1,4.8,2.6a7.74,7.74,0,0,1,2.6,1.2c-1.1,1-2.1,2-3.2,3a20.09,20.09,0,0,0-6.7-5.6,17.69,17.69,0,0,0-11.1-1.6C146.82,27.07,149.12,27.17,150.62,27Z"/><path class="cls-56" d="M323.52,26.77c1.4,3.2,2.7,6.5,4,9.8-.7,1-1.5,2.1-2.1,3.1-3.7,5.2-6.8,10.2-7.6,16.6-.5,4.7,1.1,8.8,3,13-.6.1-1.1.1-1.7.2l-.6-1.5-.1-.1c-1.8-.3-4.3.1-6.2-.1-.2-.6-.5-1.3-.7-2a26.44,26.44,0,0,1-1.6-7.9,17.7,17.7,0,0,0-.1-2.3c2-.5,4.4-.8,5.5-2.7a11.34,11.34,0,0,0-2.1-9.4l.6-1.2c2.8-4.7,5.3-9.5,8.3-14A6.58,6.58,0,0,0,323.52,26.77Z"/><path class="cls-125" d="M468.12,27c.6,0,1.2.1,1.9.1l.5.4c-1.5,4-1.3,8.1-.9,12.2a10.54,10.54,0,0,0-1.1.7,11.73,11.73,0,0,0-1.1.5C466.92,36.47,466.42,31.27,468.12,27Z"/><path class="cls-126" d="M514.82,27.07c-.7,1.7-1.2,3.5-2,5.1-1.4-.7-2.8-1.4-4.3-2,.7-.5,1.4-.9,2.1-1.4A24.65,24.65,0,0,1,514.82,27.07Z"/><path class="cls-127" d="M6.82,28.27c1.3.3,2.7,1.6,3.9,1.3H11c3.3,2.5,7.2,5.3,11.3,6a5.74,5.74,0,0,0,4.7-1.5v3.2c-.7.2-1.4.4-2.2.6-4.2-.4-7.5-2.4-10.9-4.7a14.25,14.25,0,0,0-4.3-2.5c-.1,3,.1,5.9-.2,8.9-.6-.8-1.2-1.7-1.8-2.6-.4-.7-.9-1.4-1.3-2.1A24.82,24.82,0,0,0,6.82,28.27Z"/><path class="cls-128" d="M407.62,28.57c.6-.2,1.1-.4,1.7-.6h1.4c-.7,1.5-2,2.4-2.8,3.9l-1.5.3a27.41,27.41,0,0,1-.5-2.8v-.2A4.92,4.92,0,0,1,407.62,28.57Z"/><path class="cls-51" d="M235.12,28.87c.7,1.5,1.8,3.1,2.1,4.8a41.8,41.8,0,0,1,.2,5,8.65,8.65,0,0,1-1,.7c-.8.3-1.6.7-2.4,1a15.57,15.57,0,0,0-.8-7.4c-.2-.7-1.3-1.1-1.9-1.5v-.7A15,15,0,0,0,235.12,28.87Z"/><path class="cls-129" d="M348.82,28.67l2.7,1.5c.2.2.5.4.7.6a53.52,53.52,0,0,0-.3,8V57a3.53,3.53,0,0,0,.7,2.5,20.8,20.8,0,0,1-3.8,5.5Z"/><path class="cls-130" d="M427.32,28.77a52.08,52.08,0,0,0,0,7.9,18.59,18.59,0,0,1-.4-3.3,9.15,9.15,0,0,0-.1-1.7,27.54,27.54,0,0,0-3.8,2c-3.8,2.3-7.7,4.5-11.5,6.8-.1-.7-.2-1.5-.3-2.3l.6-.4C417,35,422.12,31.67,427.32,28.77Z"/><path class="cls-131" d="M405.82,29.27a27.41,27.41,0,0,0,.5,2.8l1.5-.3.7-.1a52.1,52.1,0,0,0,.1,7.9v.2a10.65,10.65,0,0,0-2.8,1.9C405.92,37.47,405.72,33.37,405.82,29.27Z"/><path class="cls-132" d="M9.82,30.47a14.25,14.25,0,0,1,4.3,2.5c3.4,2.3,6.7,4.3,10.9,4.7.7,2.7.4,5.2.5,8.1.1,2.3-.4,4.4-.1,6.7v.8c-1,1.1-2,2.3-3,3.5-3.5,4.1-7.4,7.4-11.2,11.3a5.72,5.72,0,0,0-.8.7,61.54,61.54,0,0,0-.1-9.6c1.6-2.9,3-5.8,2.9-9.2.1-3.8-1.4-6.9-3.3-10.1l-.1-.3C9.92,36.37,9.72,33.47,9.82,30.47Z"/><path class="cls-133" d="M352.22,30.77a15.25,15.25,0,0,1,2.2,2.2l-.1.4c-.6,2.2-.3,4.3-.3,6.6v12.3a15,15,0,0,0,.4,3.7c-.5,1.2-1.1,2.4-1.7,3.6a3.83,3.83,0,0,1-.7-2.5V38.87A53.77,53.77,0,0,1,352.22,30.77Z"/><path class="cls-134" d="M411.42,30.87a41.46,41.46,0,0,0,.3,7l-.6.4c-.8.5-1.7.9-2.5,1.3a52.1,52.1,0,0,1-.1-7.9C409.52,31.37,410.42,31.17,411.42,30.87Z"/><path class="cls-135" d="M231.42,31.37c.6.4,1.7.8,1.9,1.5a15.57,15.57,0,0,1,.8,7.4l-.5.2c-.7.2-1.5.3-2.2.5Z"/><path class="cls-136" d="M426.82,31.57c0,.6.1,1.2.1,1.7-5.2,2.9-10.2,6-15.4,9-.9.5-1.8,1-2.7,1.6,0-.5.1-1.1.1-1.6.8-.6,1.7-1.2,2.6-1.8,3.8-2.3,7.7-4.5,11.5-6.8A23.17,23.17,0,0,1,426.82,31.57Z"/><path class="cls-137" d="M48.42,32.67c3.5,2.2,5.6,6.1,6.4,10h-3.3a14.86,14.86,0,0,0-4.8-10A1.69,1.69,0,0,1,48.42,32.67Z"/><path class="cls-138" d="M354.42,32.87l.8-.1c2,2.9,3.7,5.8,3.9,9.4a32.86,32.86,0,0,1-.6,9.4c-1.1,5-3.8,9.7-6.2,14.1A4.45,4.45,0,0,0,352,68v10.8l2.7.3-.1.6H349c-.2-4.9-.1-10-.1-14.9a19.3,19.3,0,0,0,3.8-5.5,39.71,39.71,0,0,0,1.7-3.6,32.81,32.81,0,0,0,3.2-13.1c-.1-1.6-.4-3.2-.6-4.8a19.51,19.51,0,0,0-2.6-4.7Z"/><path class="cls-139" d="M354.42,33.27c1,1.5,2.2,3,2.6,4.7a39.34,39.34,0,0,1,.6,4.8,37.06,37.06,0,0,1-3.2,13.1,15,15,0,0,1-.4-3.7V39.87C354.12,37.57,353.82,35.47,354.42,33.27Z"/><path class="cls-92" d="M426.82,33.37c.1,1.1.2,2.2.4,3.3-.6.6-1.2,1.1-1.8,1.6-4.6,3.4-9.4,6.7-13.6,10.6-1-1.9-.6-4.5-.4-6.6C416.62,39.37,421.72,36.17,426.82,33.37Z"/><path class="cls-27" d="M5.42,33.87c.4.3.7.6,1.1.9.4.7.9,1.4,1.3,2.1-.2,4.9-.1,9.8-.2,14.7,0,3.6-.1,7.1.2,10.7l-.2.4c-.8.9-1.5,1.8-2.3,2.6C5.42,54.77,5.42,44.37,5.42,33.87Z"/><path class="cls-140" d="M489.12,34.57a56.5,56.5,0,0,0,9.2,2.4c-.7.5-1.3,1-2,1.5-.8.3-1.7.6-2.5.9a13.52,13.52,0,0,1-5.5-3.6A4.18,4.18,0,0,1,489.12,34.57Z"/><path class="cls-141" d="M309.12,36c2.9.9,3.7,4,4.8,6.4l-.6,1.2-.7,1.3c-1.5-1.8-1.7-4.4-4.3-5-.4-1-.7-2-1.1-2.9C307.82,35.67,307.82,35.57,309.12,36Z"/><path class="cls-90" d="M488.12,35.77a13.52,13.52,0,0,0,5.5,3.6l.4.3c-2.5.7-5,1.6-7.6,2.2-4.2,1-8.4,1.7-12.5,3.1-1.1-1.9-2.2-3.5-2.6-5.7C476.82,37.77,482.62,37.37,488.12,35.77Z"/><path class="cls-53" d="M287,36.37c-.5,2.8-1.9,5.2-2.8,7.8a26,26,0,0,1-2.5,1c1.1-2.6,2.1-5.1,3.2-7.7C285.52,37.17,286.32,36.77,287,36.37Z"/><path class="cls-142" d="M427.32,36.67c5.5-.1,11.1,0,16.7,0-1.3.6-2.6,1.3-3.9,1.9-2.2-.5-4.4-.2-6.6-.6-1.5-.4-2.6.4-3.7,1.3-1.5-1.3-3.6.9-4.3-1C426.12,37.77,426.72,37.27,427.32,36.67Z"/><path class="cls-143" d="M7.82,36.87c.6.9,1.2,1.7,1.8,2.6l.1.3q-.3,9.9,0,19.8c-.6.9-1.2,1.9-1.9,2.8a95.53,95.53,0,0,1-.2-10.7C7.72,46.67,7.62,41.77,7.82,36.87Z"/><path class="cls-144" d="M27.12,37.07v13.4c-.6.7-1.2,1.3-1.8,2-.2-2.2.2-4.4.1-6.7-.1-2.8.3-5.3-.5-8.1C25.72,37.47,26.42,37.27,27.12,37.07Z"/><path class="cls-43" d="M327.52,36.57c1.6,3.8,3.1,7.5,4.6,11.3a12.81,12.81,0,0,0-1.1,2c-1.4-.1-1.3-1.2-1.8-2.3a54.41,54.41,0,0,0-2.8-6.6,2.76,2.76,0,0,0-1.1-1.3A34.57,34.57,0,0,1,327.52,36.57Z"/><path class="cls-145" d="M443.92,36.67h8.7l-.2,1.5A7.84,7.84,0,0,0,449,38a22.61,22.61,0,0,0-7.6,2.9l-.3.2a12.81,12.81,0,0,1-3.3-1.1c.8-.5,1.5-1,2.3-1.4C441.42,38,442.62,37.27,443.92,36.67Z"/><path class="cls-146" d="M452.72,36.67h1.9v3.7a22.5,22.5,0,0,0-2.4-.8c.1-.4.2-.9.3-1.4Z"/><path class="cls-147" d="M498.22,37a83.75,83.75,0,0,1,8.6,2.3,21.16,21.16,0,0,1-2.1,1.1,34.93,34.93,0,0,0-8.5-1.9A9.51,9.51,0,0,0,498.22,37Z"/><path class="cls-148" d="M298.72,37.17l2.1,1.2c-1.3,1.9-4,2.4-5.9,3.5a67.72,67.72,0,0,1-8.5,4.3l-.6.1c.4-1.1.8-2.3,1.3-3.4.3-.2.6-.3.9-.5,2.4-1.2,4.8-2.5,7.1-3.9C296.22,38.07,297.52,37.17,298.72,37.17Z"/><path class="cls-149" d="M433.42,38c2.2.4,4.4.2,6.6.6-.8.5-1.5.9-2.3,1.4-.6.3-1.2.7-1.7,1-2.2-.3-4.3-.5-6.2-1.7C430.82,38.37,431.92,37.57,433.42,38Z"/><path class="cls-150" d="M452.42,38.17c-.1.5-.2.9-.3,1.4s-.4,1-.6,1.6c-3.4-.3-6.8-.1-10.2-.2a22.61,22.61,0,0,1,7.6-2.9A8.17,8.17,0,0,1,452.42,38.17Z"/><path class="cls-90" d="M300.72,38.37v.1c.2,2.8.4,5.7.5,8.5-.4,1.3-.9,2.5-1.4,3.8l.4.3a3.92,3.92,0,0,1,1,.8c.4,1.4.5,2.9.9,4.4a46.81,46.81,0,0,0,2.8,9.7c.2.6.5,1.3.7,1.9-3.9,0-7.9.1-11.8,0a19.42,19.42,0,0,1,2.4-.2l1.3-.1c-2.1-3.8-4-8.9-7.5-11.6a11.48,11.48,0,0,0-6.4-2.2c.2-2.7,2.2-4.9,2.7-7.6a67.72,67.72,0,0,0,8.5-4.3C296.82,40.77,299.52,40.27,300.72,38.37Z"/><path class="cls-151" d="M411.12,38.17c.1.8.2,1.5.3,2.3-.9.6-1.7,1.2-2.6,1.8-.1-.8-.1-1.7-.2-2.5v-.2C409.52,39.07,410.32,38.67,411.12,38.17Z"/><path class="cls-152" d="M425.52,38.27c.6,2,2.7-.3,4.3,1a141.1,141.1,0,0,0-16.4,12.4,14.2,14.2,0,0,0-2,2.8c-1.1,1.5-2.2,2.9-2.3,4.8-.2,4.9,0,9.8-.1,14.7a13,13,0,0,0,1.4,5.8h-4.1c-.3-4.9-.2-10,0-15a25.71,25.71,0,0,0,1.4-6.1c.3-1.8,1.8-3.5,1.7-5.4l-1.1-.6a42.48,42.48,0,0,1,3.5-3.9C416.12,45,420.92,41.67,425.52,38.27Z"/><path class="cls-153" d="M116,38.87l1.3-.2c-.1,2.7-.8,5.4-.9,8.1a60.47,60.47,0,0,1,.4,6.1c.4,4.3,2,8,3.8,11.9l-.2.3a9.43,9.43,0,0,0-1,1c-2.8-3.1-3.8-8-4.6-12-.2-2.7-1-5.6-.5-8.2.4-2.2,0-4.3,1-6.5Z"/><path class="cls-154" d="M496.22,38.47a34.93,34.93,0,0,1,8.5,1.9c-.7.3-1.4.7-2.2,1-.5.2-.9.4-1.4.6a2.25,2.25,0,0,0-1.4-.8,26.68,26.68,0,0,1-5.7-1.6l-.4-.3A25.82,25.82,0,0,0,496.22,38.47Z"/><path class="cls-147" d="M115.22,39.27c-.9,2.1-.6,4.2-1,6.5-.5,2.7.3,5.5.5,8.2.8,3.9,1.8,8.9,4.6,12l-1.2,1.2c-5.6-7.8-7.5-17.5-6.3-27l1.4-.3C113.82,39.67,114.52,39.47,115.22,39.27Z"/><path class="cls-155" d="M236.52,39.37c.1,3.7.1,7.5,0,11.2-.4.1-.8.3-1.2.4-.6,0-1.1.1-1.7.1.2-3.5.1-7,0-10.4l.5-.2A25.57,25.57,0,0,1,236.52,39.37Z"/><path class="cls-132" d="M429.82,39.27A13.39,13.39,0,0,0,436,41a86.75,86.75,0,0,0-10.7,8.5c-3.1,2.9-6.1,6-7.6,10.1-1.2,3.3-.9,6.6-.1,10,.6,2.2,1.1,4.2,2.6,6,1,1.8,3.1,1.3,4.6.5a44.52,44.52,0,0,0,10.3-8c3.3-.1,6.6,0,9.9,0l-.1.4c-1.8,3-3.4,6-4.9,9.1-.2.4-.5.7-.7,1.1-8.4-.5-16.9,0-25.4-.3-1.6-.1-2.2-1.3-2.3-2.7-.5-7.1.1-14.2-.3-21.3a17.91,17.91,0,0,1,2-2.8A153.66,153.66,0,0,1,429.82,39.27Z"/><path class="cls-156" d="M471.32,39.27c.4,2.2,1.6,3.8,2.6,5.7l-.7.3a9.21,9.21,0,0,0-2.4,1.3c.5-1.9-1.6-4.3-2.2-6.1a10.54,10.54,0,0,0,1.1-.7C470.22,39.57,470.72,39.47,471.32,39.27Z"/><path class="cls-157" d="M506.92,39.27h.1a22.47,22.47,0,0,1,10.7,6.3,18.21,18.21,0,0,1-3.3.1H514c-2.2-1.6-4.6-2.1-7.1-3a31.66,31.66,0,0,0-4.4-1.2,14.72,14.72,0,0,1,2.2-1C505.52,40.07,506.12,39.67,506.92,39.27Z"/><path class="cls-158" d="M9.72,39.77c1.9,3.2,3.4,6.3,3.3,10.1.1,3.4-1.2,6.3-2.9,9.2l-.4.4C9.52,53,9.62,46.27,9.72,39.77Z"/><path class="cls-159" d="M308.06,39.87c2.82.6,2.92,3.2,4.66,5-.54,1-1,2-1.52,3C310,45.17,309,42.47,308.06,39.87Z"/><path class="cls-91" d="M325.32,39.67a2.76,2.76,0,0,1,1.1,1.3c1,2.2,2,4.3,2.8,6.6.5,1,.4,2.2,1.8,2.3-1.7,3.6-2,7.4.5,10.6,1.6,2.1,3.5,2.4,6,2.2l.4-1c1.6,3.9,3.3,7.9,4.9,11.8a25.6,25.6,0,0,0-3.4,6.3h-13.6a13.36,13.36,0,0,0,1.8-.7,22.9,22.9,0,0,1-3.1-5.5c-.8-1.4-1-3.4-3-3.3-.2-.4-.4-.7-.6-1.1-1.9-4.2-3.5-8.3-3-13C318.52,49.87,321.72,44.87,325.32,39.67Z"/><path class="cls-104" d="M408.62,39.77a21.05,21.05,0,0,1,.2,2.5c0,.5-.1,1.1-.1,1.6-.3.4-.6.7-.9,1.1a7.37,7.37,0,0,1-1.4.4c-.2-.3-.5-.6-.7-.9v-2.9A22.87,22.87,0,0,1,408.62,39.77Z"/><path class="cls-160" d="M437.82,40a12.81,12.81,0,0,0,3.3,1.1c-1.2.8-2.4,1.5-3.7,2.3a71.83,71.83,0,0,0-14,11.8,16,16,0,0,0-4.3,14.1c.4,2.2,1.5,3.9,1.2,6.3a16.13,16.13,0,0,1-2.6-6,17,17,0,0,1,.1-10c1.4-4.1,4.5-7.2,7.6-10.1a97.33,97.33,0,0,1,10.7-8.5C436.62,40.67,437.22,40.27,437.82,40Z"/><path class="cls-161" d="M452.22,39.57c.8.3,1.6.5,2.4.8,0,4.3.1,8.6,0,12.9h-8.9l.9-1.5a12.32,12.32,0,0,0,5.4.2,3,3,0,0,0,1.5-2.1,34.22,34.22,0,0,0-.1-6.4,17.11,17.11,0,0,0-1.8-2l.1-.4A8.8,8.8,0,0,1,452.22,39.57Z"/><path class="cls-162" d="M494,39.67a28.43,28.43,0,0,0,5.7,1.6,2.25,2.25,0,0,1,1.4.8c-7.2,3.3-14.7,4.7-22.2,6.6-.5.1-1,.3-1.4.4a10.53,10.53,0,0,1-4.3-3.8l.7-.3c4.1-1.4,8.3-2.1,12.5-3.1C489,41.27,491.52,40.37,494,39.67Z"/><path class="cls-13" d="M233.62,40.57c.1,3.5.2,7,0,10.4-.7.2-1.4.4-2.2.6V41.07A14.19,14.19,0,0,0,233.62,40.57Z"/><path class="cls-163" d="M468.52,40.47c.6,1.8,2.7,4.2,2.2,6.1a17.17,17.17,0,0,1-4.1-5.2l.7-.3A13.39,13.39,0,0,0,468.52,40.47Z"/><path class="cls-75" d="M441.12,41.07l.3-.2c3.4.2,6.8-.1,10.2.2l-.1.4a81.45,81.45,0,0,1-5,10.3l-.9,1.5c-6.1.1-12.2,0-18.4,0,0,3-.1,6.1.1,9.1a10.8,10.8,0,0,0,2.4,2.8c1.9,1.1,4.5,1.1,6.6,1.4-.4.5-.9,1-1.3,1.5a44.52,44.52,0,0,1-10.3,8c-1.5.8-3.6,1.3-4.6-.5.3-2.3-.8-4-1.2-6.3a16.05,16.05,0,0,1,4.3-14.1,71.83,71.83,0,0,1,14-11.8A36.42,36.42,0,0,0,441.12,41.07Z"/><path class="cls-164" d="M451.52,41.47a17.11,17.11,0,0,1,1.8,2,22.88,22.88,0,0,1,.1,6.4,2.53,2.53,0,0,1-1.5,2.1,12.32,12.32,0,0,1-5.4-.2A81.45,81.45,0,0,0,451.52,41.47Z"/><path class="cls-102" d="M502.62,41.47a36,36,0,0,1,4.4,1.2c2.5.9,4.9,1.4,7.1,3l-2.2.3c-4.7.4-9.3,2.1-13.9,3.1-4,1.1-8,1.8-12.1,2.7-2.2-1.5-5-1.3-6.9-3.1,7.6-1.9,15.1-3.4,22.2-6.6C501.62,41.87,502.12,41.67,502.62,41.47Z"/><path class="cls-165" d="M103,42.37l.5-.3c.1,4.6,0,9.3,0,13.9a14.62,14.62,0,0,0-1.6,1.9c-1-1.7-.6-3.8-.6-5.7-.1-3,.1-6,.1-9C101.92,43,102.42,42.67,103,42.37Z"/><path class="cls-59" d="M411.52,42.27c-.2,2.1-.6,4.7.4,6.6-1.2,1.3-2.4,2.5-3.5,3.9-.5-2.7.2-5.2-.5-7.8.3-.4.6-.7.9-1.1C409.62,43.37,410.62,42.77,411.52,42.27Z"/><path class="cls-166" d="M51.62,42.67h1.5c.2,1.9.9,4,.6,5.9-.4,2.6-.7,5.1-2.3,7.3-.8-.2-1.5-.3-2.3-.5C51.52,51.67,52.12,47.07,51.62,42.67Z"/><path class="cls-167" d="M53.12,42.77h1.8L56,43a22.78,22.78,0,0,1-1.7,14.1l-1-.2-1.8-.6V56c1.5-2.2,1.8-4.7,2.3-7.3C54,46.77,53.32,44.67,53.12,42.77Z"/><path class="cls-168" d="M287.12,43a34.23,34.23,0,0,0-1.3,3.4c-1.1.6-2.2,1.2-3.3,1.9a18.46,18.46,0,0,1-2.3.4c.5-1.1.9-2.3,1.4-3.4a26,26,0,0,0,2.5-1C285.12,43.77,286.12,43.47,287.12,43Z"/><path class="cls-82" d="M101.42,43.17c0,3-.1,6-.1,9,.1,1.9-.4,4,.6,5.7-1.1,2-.6,3.7,1.6,4.6v.3c-1.6-.4-1.6,1.7,0,1.2v10.2c-3.6,1-7.5,2.2-10.3,4.8-1.9-.4-5.1-.1-5.8-2.4-.4-6.5.2-13.2-.3-19.7a8.65,8.65,0,0,0,.7-1C91.82,51,95.32,45.67,101.42,43.17Z"/><path class="cls-169" d="M157,43.57c4.3.1,8.6,0,13,.1a34.9,34.9,0,0,1,5.6,0c-2.5,0-4.4,0-6.5,1.3a11.23,11.23,0,0,0-8.8.5c-1.8.8-2.1,2.5-2.5,4.2A3.6,3.6,0,0,0,158,52c-.4.2-.9.4-1.3.6v-8.7Z"/><path class="cls-170" d="M185,43.17c.6.2,1.1.3,1.7.5l.8.2c.7.2,1.4.5,2,.7l-.3,1.3-1.2-.3a15,15,0,0,0-2.9-.6A3.53,3.53,0,0,1,185,43.17Z"/><path class="cls-171" d="M175.62,43.57v1a42.91,42.91,0,0,0-5,1.9,6.22,6.22,0,0,1-3.3-.5c.6-.3,1.1-.7,1.7-1C171.22,43.57,173.22,43.57,175.62,43.57Z"/><path class="cls-172" d="M313.32,43.57a11.34,11.34,0,0,1,2.1,9.4c-1.1,2-3.6,2.2-5.5,2.7v-1.4a31.06,31.06,0,0,1,.4-3.2h2.1c-.3-1.1-.8-2.2-1.1-3.3.5-1,.9-2,1.4-3Z"/><path class="cls-173" d="M169.12,45c-.6.3-1.1.7-1.7,1l-.2.1-.4.2c-2.2-.4-4.2-.7-6,.9-1.4,1.1-1.4,2.6-1.8,4.2l-.9.5a3.6,3.6,0,0,1-.2-2.3c.4-1.7.7-3.4,2.5-4.2A11,11,0,0,1,169.12,45Z"/><path class="cls-174" d="M175.62,44.57v2.3a14,14,0,0,0-5,1.1h-2.4c.8-.5,1.6-1,2.5-1.5C172.32,45.77,174,45.27,175.62,44.57Z"/><path class="cls-89" d="M189.52,44.67c4,1.5,8.6,3.2,12.9,2.8a7,7,0,0,0,4.4-2.3v3.4c-2.1.2-4,.7-6.2.5-3.9-.4-7.7-2.1-11.4-3.2Z"/><path class="cls-175" d="M405.82,44.57a5.5,5.5,0,0,0,.7.9c.5-.1.9-.3,1.4-.4.7,2.6.1,5.2.5,7.8-.7,1.6-2.2,3-2.4,4.7a26.32,26.32,0,0,0,.4,7.4c-.2,4.9-.3,10,0,15h-.5C405.72,68,405.92,56.37,405.82,44.57Z"/><path class="cls-176" d="M185,45.07a24.75,24.75,0,0,1,2.9.6l-.1.9c-2.6.3-1.5,2.6-1.7,4.4-.1,1.2,1.1,1.4,1.9,1.9s1.4.8,2.2,1.2a6.58,6.58,0,0,1-3,.7c-.2,2.4,0,4.8-.1,7.3l-.4-.2a13.36,13.36,0,0,0-1.8-.7C184.92,55.87,185,50.47,185,45.07Z"/><path class="cls-177" d="M473.22,45.27a10.53,10.53,0,0,0,4.3,3.8c-.7.3-1.4.5-2.1.8a19,19,0,0,1-4.7-3.3A11.88,11.88,0,0,1,473.22,45.27Z"/><path class="cls-178" d="M166.82,46.27c-2.3,1.6-4.6,3.2-7,4.6l-.7.5c.4-1.6.4-3.1,1.8-4.2C162.52,45.57,164.62,45.87,166.82,46.27Z"/><path class="cls-179" d="M167.22,46.07l.2-.1a6.07,6.07,0,0,0,3.3.5c-.8.5-1.6,1-2.5,1.5-2.8,1.5-5.3,3.4-7.9,5.1-.2-.7-.3-1.4-.5-2.2,2.4-1.5,4.7-3.1,7-4.6Z"/><path class="cls-180" d="M187.92,45.77l1.2.3c3.7,1.1,7.5,2.7,11.4,3.2,2.1.2,4-.3,6.2-.5v1.6l-.9.1c-5.2.9-9.9-.4-14.8-2.1-.9-.3-1.7-.7-2.6-1l-.6-.7Z"/><path class="cls-181" d="M514,45.67h.4a18.21,18.21,0,0,0,3.3-.1,15.75,15.75,0,0,1,4.2,8.9,22.75,22.75,0,0,1-2.9,15.1l-.5-1c.6-2.8,2-5.2,1.9-8.2a20.15,20.15,0,0,0-2.2-8.4c-1.6-2.8-4.4-3.7-6.4-6Z"/><path class="cls-182" d="M285.82,46.37l.6-.1c-.5,2.7-2.5,4.9-2.7,7.6l-.7.3a22.6,22.6,0,0,1-2.6-.1c.7-1.9,1.5-3.8,2.1-5.8A27.91,27.91,0,0,1,285.82,46.37Z"/><path class="cls-91" d="M511.82,46c2,2.3,4.8,3.2,6.4,6a20.55,20.55,0,0,1,2.2,8.4c.1,3.1-1.4,5.4-1.9,8.2l.5,1a21.81,21.81,0,0,1-8.7,7.8c-7,3.8-15.8,4.5-23.6,3.7,4.4-3.6,10.1-5.9,14.9-8.9a13.68,13.68,0,0,0,6.3-7.7,5.4,5.4,0,0,0-1.1-4.6c-1.5-2.4-5.3-3.2-7.9-2.9-4.8-2.1-10.5-2.7-15.4-4.3a23.4,23.4,0,0,1,2.4-.9c4-.9,8.1-1.6,12.1-2.7C502.52,48.07,507.12,46.47,511.82,46Z"/><path class="cls-183" d="M175.62,47c.1,1.7,0,3.4,0,5.1l-.8-.1a5.26,5.26,0,0,0-1.5-2.6,6.6,6.6,0,0,0-2.8-.9V48A14.92,14.92,0,0,1,175.62,47Z"/><path class="cls-184" d="M187.82,46.67l.6.7A52.7,52.7,0,0,1,188,53c-.8-.5-2.1-.7-1.9-1.9C186.32,49.27,185.32,47,187.82,46.67Z"/><path class="cls-185" d="M188.42,47.37a27.73,27.73,0,0,0,2.6,1,17.74,17.74,0,0,0-.5,5.6l-.2.1c-.7-.4-1.4-.8-2.2-1.2A49.33,49.33,0,0,0,188.42,47.37Z"/><path class="cls-186" d="M168.22,48h2.4v.5a45.75,45.75,0,0,0-8.4,5.3c-.8.5-1.5,1-2.3,1.4-.3,0-.5.1-.8.1a5,5,0,0,1-.2-1.2,12.67,12.67,0,0,1,1.3-1.1C162.92,51.37,165.42,49.47,168.22,48Z"/><path class="cls-187" d="M282.52,48.17a57.15,57.15,0,0,1-2.1,5.8H278c.7-1.8,1.5-3.6,2.2-5.4A18.46,18.46,0,0,0,282.52,48.17Z"/><path class="cls-188" d="M332.12,47.87c1.6,3.9,3.3,7.9,4.9,11.8-.6.1-1.1.3-1.7.4-1.5-3.4-2.6-6.9-4.3-10.2C331.42,49.17,331.72,48.47,332.12,47.87Z"/><path class="cls-90" d="M170.62,48.47a6.6,6.6,0,0,1,2.8.9c.9.7,1,1.6,1.5,2.6-4.5,1.7-8,4.4-12.1,6.9-1.2-1.6-.5-3.2-.6-5.1A51.8,51.8,0,0,1,170.62,48.47Z"/><path class="cls-90" d="M191,48.37c4.8,1.7,9.6,3,14.8,2.1-.3,8.6,0,17.2-.2,25.8-.4,1.9-2.2,2.3-3.9,2.5l-.1-.6c-.5-5.4-.4-10.6-2.5-15.7a15,15,0,0,0-7.1-7.4c-.5-.4-1-.7-1.5-1.1A21.25,21.25,0,0,1,191,48.37Z"/><path class="cls-189" d="M251.62,48.77c.5,0,1.1.1,1.6.1a7.41,7.41,0,0,1,.1,2.1c-.2,1.4-.4,2.8-.5,4.1-.7-1.2-1.3-2.3-1.9-3.5C251.12,50.57,251.42,49.67,251.62,48.77Z"/><path class="cls-190" d="M477.52,49.07c.5-.1,1-.3,1.4-.4,1.9,1.8,4.7,1.6,6.9,3.1l-2.4.9a49,49,0,0,1-8.1-2.9A8.08,8.08,0,0,0,477.52,49.07Z"/><path class="cls-191" d="M252.32,49.37h.5l.3.5-.2.5h-.5l-.3-.5Z"/><path class="cls-164" d="M331,49.87c1.7,3.3,2.8,6.9,4.3,10.2-1.3.2-2.6.3-3.8.4C329,57.17,329.32,53.37,331,49.87Z"/><path class="cls-192" d="M27.12,50.47c.1,3.7,0,7.4,0,11.1l.8.1c0,.3.1.6.1.9-.5.4-1.1.7-1.7,1.1-1.1-.5-.9-1.5-1.1-2.6-.4-2.7.1-5.2,0-7.8v-.8C25.92,51.77,26.52,51.07,27.12,50.47Z"/><path class="cls-46" d="M205.82,50.47l.9-.1c0,9.8.1,19.7,0,29.5h-4.9v-1.1c1.7-.2,3.5-.5,3.9-2.5C205.82,67.67,205.52,59.07,205.82,50.47Z"/><path class="cls-193" d="M236.62,50.57c.5,0,1-.1,1.5-.1q-.15,5.25,0,10.5a10.55,10.55,0,0,0-2.4-.6c-.5-3.1,0-6.3-.3-9.4A3.37,3.37,0,0,1,236.62,50.57Z"/><path class="cls-194" d="M238.12,50.47a57,57,0,0,1,7.1-.3c1.6,0,3,.9,4.5,1.4.6,3.7,1.2,7.3,2.1,11-.9,1.7-.5,3.7-.6,5.6-.1,2.6.3,5.4-.4,7.8-1.4-3.6-3.1-8.7-6.7-10.5a19.32,19.32,0,0,0-5.3-4.1l-.7-.3C238,57.47,238,54,238.12,50.47Z"/><path class="cls-195" d="M159,51.37l.7-.5c.2.7.3,1.4.5,2.2-.4.4-.9.7-1.3,1.1a22.56,22.56,0,0,1-2.2,1.1,26.2,26.2,0,0,1,.1-2.8c.5-.2.9-.4,1.3-.6Z"/><path class="cls-196" d="M233.62,51.07c-.1,3,0,6-.1,9.1h-2.1v-8.5C232.22,51.37,232.92,51.27,233.62,51.07Z"/><path class="cls-197" d="M233.62,51.07c.6,0,1.1-.1,1.7-.1.3,3.1-.2,6.3.3,9.4l-1.1-.1c-.3,0-.7-.1-1-.1C233.62,57.07,233.52,54.07,233.62,51.07Z"/><path class="cls-198" d="M250.92,51.57a39,39,0,0,0,1.9,3.5c.2-1.4.4-2.8.5-4.1-.4,5.3,0,10.8-.1,16.2a36.76,36.76,0,0,1-1.5-4.7c-.9-3.6-1.5-7.3-2.1-11C250.12,51.47,250.52,51.57,250.92,51.57Z"/><path class="cls-199" d="M300.32,51.07c1.2,0,2.4,0,3.7.1a2.4,2.4,0,0,0-1,1c.4,1.1,1.8,1.4,2.8,1.7a19.15,19.15,0,0,0,4.1.5v1.4a17.7,17.7,0,0,0,.1,2.3,7.54,7.54,0,0,0-2.9-.9,13.19,13.19,0,0,1-4.8-.9c-.3-1.4-.5-2.9-.9-4.4Z"/><path class="cls-200" d="M304,51.17c2.1,0,4.2-.1,6.4,0-.2,1.1-.3,2.1-.4,3.2a18.41,18.41,0,0,1-4.1-.5c-1-.2-2.4-.6-2.8-1.7C303.12,51.77,303.52,51.47,304,51.17Z"/><path class="cls-98" d="M174.82,52l.8.1v2.5c-5.1,1-9.6,5.4-14.2,7.7-.3-.6-.5-1.2-.8-1.9l-.1-.3a17.1,17.1,0,0,0,2.3-1.3C166.82,56.37,170.42,53.67,174.82,52Z"/><path class="cls-201" d="M408.42,52.77l1.1.6c.1,1.9-1.4,3.6-1.7,5.4a25.71,25.71,0,0,1-1.4,6.1,26.12,26.12,0,0,1-.4-7.4C406.22,55.77,407.82,54.37,408.42,52.77Z"/><path class="cls-92" d="M25.32,53.17c.1,2.7-.5,5.2,0,7.8.3,1.1,0,2,1.1,2.6l-.1.2c-5.2,3.2-10.2,7.2-15.1,10.9a50,50,0,0,1-.1-6.7c3.7-3.8,7.7-7.2,11.2-11.3C23.22,55.57,24.32,54.37,25.32,53.17Z"/><path class="cls-202" d="M370.52,52.77c.1,1.7,0,3.4,0,5.1a21.06,21.06,0,0,0-4.5,5.8,117.25,117.25,0,0,0-7.7,13.9c-.3.7-.5,1.4-.8,2.2-1,0-2,.1-3.1,0l.1-.6c1.9-6.3,5.8-12.1,9.1-17.7C365.72,58.47,367.72,55.07,370.52,52.77Z"/><path class="cls-203" d="M158.92,54.17c.1.4.1.8.2,1.2.3,0,.5-.1.8-.1,0,1.6-.6,3.7.6,4.9l.1.3c-5.1,1.8-10.4,3.6-15.7,4.2-1.7-1.2-3.8-2.1-5.1-3.6l.2-.9c4.7,3.3,11.8,3.3,16.8.8v-5.5A14.79,14.79,0,0,1,158.92,54.17Z"/><path class="cls-204" d="M162.22,53.87c.1,1.9-.6,3.5.6,5.1a17.1,17.1,0,0,1-2.3,1.3c-1.2-1.2-.6-3.3-.6-4.9A15,15,0,0,1,162.22,53.87Z"/><path class="cls-205" d="M190.22,54.07l.2-.1c.5.4,1,.7,1.5,1.1a28.86,28.86,0,0,0-2.9.4c-.1,2.7.1,5.3-.2,8-.6-.4-1.3-.9-1.9-1.3.1-2.4,0-4.9.1-7.3C188.32,54.67,189.32,54.77,190.22,54.07Z"/><path class="cls-206" d="M278,54.07h2.4a22.6,22.6,0,0,1,2.6.1,4.21,4.21,0,0,1-1.9,1.6c-2,.7-2.2,2.9-4.6,1.9Z"/><path class="cls-207" d="M283,54.07l.7-.3a11.48,11.48,0,0,1,6.4,2.2c-2.5.3-5.2-1.3-7.4.3-1.3,1-3.2,1.2-3.6,2.8-2.2,5.3-4.3,10.6-6.5,15.9a14.2,14.2,0,0,0-.8,4.1c-.2.3-.5.5-.7.8h-3.7c3-7.4,6.1-14.8,9.1-22.2,2.4,1,2.6-1.2,4.6-1.9A4.44,4.44,0,0,0,283,54.07Z"/><path class="cls-85" d="M175.62,54.57v6.8c-4.8,2.2-9.1,5.2-13.9,7.3s-10.2,3.3-14.9,5.7a10,10,0,0,0-5.1,5.4c-3.8-1.8-9.8-2.9-12.6-6.4,2.5-1.9,4.8-3.8,7.8-4.9a46,46,0,0,1,9.1-1.9,40.51,40.51,0,0,1,7-.7c2.9-.4,5.9-2.3,8.5-3.6C166,59.87,170.52,55.57,175.62,54.57Z"/><path class="cls-44" d="M411.32,54.37c.5,7.1-.1,14.2.3,21.3,0,1.5.7,2.6,2.3,2.7,8.4.3,16.9-.2,25.4.3l-.1,1.1h-28.8A13,13,0,0,1,409,74c.1-4.9-.1-9.8.1-14.7C409.22,57.27,410.22,55.87,411.32,54.37Z"/><path class="cls-89" d="M135.42,55.07a13.59,13.59,0,0,0,2.7,3.6,8,8,0,0,0-3.1-.2v-.7c-2.4-.2-4.2.9-6.2,2.2-2.6,2.1-4.7,4.7-7.1,7l-.4.3c-.4-.7-.7-1.5-1.1-2.2l.2-.3c2.5-2.6,5-5.6,8-7.5C130.72,55.77,133,55.57,135.42,55.07Z"/><path class="cls-93" d="M189.12,55.47a28.86,28.86,0,0,1,2.9-.4,15,15,0,0,1,7.1,7.4c2.1,5.1,2,10.3,2.5,15.7-2,0-4,0-6,.1-.6-4.3-1.6-8.5-4.2-12a13.44,13.44,0,0,0-1.1-1.4l-1.3-1.3C189.22,60.77,189,58.07,189.12,55.47Z"/><path class="cls-208" d="M49.22,55.47c.8.2,1.5.3,2.3.5v.3a14,14,0,0,1-5.5,5.3,22.73,22.73,0,0,1-11.2,1.9c-2.2,0-3.8-1.6-6-1.5l-.1-.3c2.8.2,5.7,0,8.5,0A14.19,14.19,0,0,0,49.22,55.47Z"/><path class="cls-209" d="M290.12,56c3.5,2.7,5.4,7.8,7.5,11.6l-1.3.1a29.41,29.41,0,0,0-4.5-7.9,8.62,8.62,0,0,0-8.6-2.4,43.09,43.09,0,0,0-2.2,4.9c-1.8,4.5-3.8,8.9-5.4,13.5a1.91,1.91,0,0,0,.7,2.5c1.5.8,3.6.6,5.3.6a30.17,30.17,0,0,0,5.2-.2c1.3-.3,2.2-1.4,3.5-1.2-.3.8-.5,1.5-.8,2.3l-.3.2h-18.1a5.72,5.72,0,0,0,.7-.8,14.89,14.89,0,0,1,.8-4.1c2.1-5.3,4.3-10.6,6.5-15.9.4-1.7,2.2-1.8,3.6-2.8C284.92,54.67,287.62,56.27,290.12,56Z"/><path class="cls-210" d="M51.42,56.27l1.8.6a15.76,15.76,0,0,1-11.2,8c-3.5.5-7.5,1-10.9-.1a3.22,3.22,0,0,1-2.3-2.7c2.2-.1,3.8,1.4,6,1.5A25.24,25.24,0,0,0,46,61.67,15.51,15.51,0,0,0,51.42,56.27Z"/><path class="cls-211" d="M103.52,56.07v6.4c-2.2-.8-2.7-2.6-1.6-4.6C102.42,57.27,103,56.67,103.52,56.07Z"/><path class="cls-194" d="M302.22,56.17a13.19,13.19,0,0,0,4.8.9,5,5,0,0,1,2.9.9,27.09,27.09,0,0,0,1.6,7.9c-2.2,0-4.3,0-6.5.1A42.17,42.17,0,0,1,302.22,56.17Z"/><path class="cls-212" d="M53.22,56.87l1,.2v.3a15.49,15.49,0,0,1-8.5,7.6,2.49,2.49,0,0,0,.1.8,22.7,22.7,0,0,0-11.4,2.3c-2.3-.7-4.2-.3-6-1.7a8.09,8.09,0,0,1-2.1-2.4l.1-.2a16.29,16.29,0,0,0,1.7-1.1c0-.3-.1-.6-.1-.9l.7.1.1.3a3.22,3.22,0,0,0,2.3,2.7c3.4,1.1,7.5.6,10.9.1A16.45,16.45,0,0,0,53.22,56.87Z"/><path class="cls-213" d="M87.22,56.77c.4,6.5-.1,13.2.3,19.7.7,2.4,3.9,2,5.8,2.4l-.8.8c-2.5-.1-4.9.1-7.4,0,.1-1.8-.6-3.5-.5-5.3.1-5.1-.1-10.2.1-15.3a9.43,9.43,0,0,0,1-1C86.12,57.77,86.62,57.27,87.22,56.77Z"/><path class="cls-85" d="M291.82,59.67a29.41,29.41,0,0,1,4.5,7.9,19.42,19.42,0,0,0-2.4.2c-1.3,3.1-2.3,6.4-3.5,9.5-1.3-.2-2.2,1-3.5,1.2a30.17,30.17,0,0,1-5.2.2c-1.7,0-3.8.1-5.3-.6a1.91,1.91,0,0,1-.7-2.5c1.7-4.6,3.6-9,5.4-13.5a30.62,30.62,0,0,1,2.2-4.9C286.12,56.57,289.82,57.27,291.82,59.67Z"/><path class="cls-214" d="M498.92,57.07c2.6-.3,6.4.5,7.9,2.9-.5,1.6-.5,3.1-1.2,4.5a12.16,12.16,0,0,1-3.7,4.1c-1.4-.9-3,.3-4.6.4a32.06,32.06,0,0,1-10.7-.7c-3.3-.5-6.2-2-9.4-2.9a2.38,2.38,0,0,0-2.8.9,20.75,20.75,0,0,0-2.5,5.2c-.3,1.1-.9,2.3-.2,3.4,3.8,2.7,7.8,3.1,12.2,4a31.33,31.33,0,0,1-3.2,1.5,57.79,57.79,0,0,1-11-3.1,10.46,10.46,0,0,1-.5-6.3c.8-3.5,3.5-6.4,6.2-8.6,3.5.4,6.7,2.4,10.2,3.1,4.2.7,9.1,1.7,13.2.5a6.79,6.79,0,0,0,3.5-2.2,11.48,11.48,0,0,0,0-3.7c-.3-.7-1.3-1-1.9-1.4A5.72,5.72,0,0,0,498.92,57.07Z"/><path class="cls-96" d="M54.22,57.37c4.6,1.8,8.5,4.3,13.5,5.4.6.1,1.2.2,1.7.3a30.93,30.93,0,0,1-6.6,8.2c-6.1-1.2-11-5.1-17-5.5a2.2,2.2,0,0,0-.1-.8A15.49,15.49,0,0,0,54.22,57.37Z"/><path class="cls-90" d="M135,57.67v.7a2.5,2.5,0,0,0,.3,1.3c1.3,2.1,3.3,3.6,4.8,5.5a23,23,0,0,0-12.3,6.2l-.4.4c-2.7-.9-3.3-3.5-5.8-4.9,2.4-2.3,4.5-5,7.1-7C130.82,58.67,132.62,57.47,135,57.67Z"/><path class="cls-215" d="M471,57.47a41.66,41.66,0,0,0,6.7,3.3l-.5.4c-1.4,0-3.2-.5-4.3.6-2.5,2-3,5.6-4.5,8.5a9.14,9.14,0,0,0-.9,6.1,37.18,37.18,0,0,1-3.4-1.9C466.22,68.67,468.62,63.07,471,57.47Z"/><path class="cls-82" d="M370.52,57.87a25.39,25.39,0,0,1,0,3.9V62c-.4,1.7,1.7,3.2,3,4,3.8,1.5,8.8.7,13,1-2.3,2.5-4.9,5.2-5.6,8.6a18.66,18.66,0,0,1-.7,2.2c-3.4,0-6.9.3-10.3,0-3.7-.2-7.9.7-11.5-.2a125.71,125.71,0,0,1,7.7-13.9A24.68,24.68,0,0,1,370.52,57.87Z"/><path class="cls-216" d="M135.12,58.37a8.13,8.13,0,0,1,3.1.2l1.8,1.5-.2.9c1.4,1.5,3.5,2.5,5.1,3.6l-.8.1-3.8.6c-1.5-2-3.5-3.5-4.8-5.5A1.49,1.49,0,0,1,135.12,58.37Z"/><path class="cls-217" d="M500.52,58.67c.6.4,1.6.7,1.9,1.4a11.48,11.48,0,0,1,0,3.7,6.22,6.22,0,0,1-3.5,2.2c-4.1,1.2-9.1.2-13.2-.5-3.5-.6-6.7-2.7-10.2-3.1a18.26,18.26,0,0,0,1.6-1.3l.5-.4a39.43,39.43,0,0,0,18,2.8c1.6-.2,3.7-.6,4.6-2C500.92,60.57,500.62,59.67,500.52,58.67Z"/><path class="cls-218" d="M9.82,59.57l.4-.4a61.54,61.54,0,0,1,.1,9.6c-.7.6-1.5,1.3-2.3,1.9a68.68,68.68,0,0,0-.3-7.9l.2-.4A27.5,27.5,0,0,1,9.82,59.57Z"/><path class="cls-219" d="M84.22,59.47l.4-.3c-.1,5.1,0,10.2-.1,15.3-.1,1.8.6,3.5.5,5.3-1.1,0-2.1.1-3.2,0-.1-6.2,0-12.4,0-18.6C82.62,60.67,83.42,60.07,84.22,59.47Z"/><path class="cls-220" d="M231.42,60.07h2.1c.3,0,.7.1,1,.1-.6,2.9-.1,6-.4,9-.9-.2-1.8-.3-2.7-.5Z"/><path class="cls-221" d="M335.32,60.07a10.46,10.46,0,0,0,1.7-.4,16.67,16.67,0,0,1,.8,2l-.4,1c-2.5.3-4.4-.1-6-2.2C332.82,60.37,334.12,60.27,335.32,60.07Z"/><path class="cls-222" d="M160.62,60.37a10.84,10.84,0,0,1,.8,1.9c-2.6,1.3-5.6,3.3-8.5,3.6a32.6,32.6,0,0,0-7,.7,20.36,20.36,0,0,1-2.2-.9,4.18,4.18,0,0,1,.4-1l.8-.1C150.22,64,155.52,62.17,160.62,60.37Z"/><path class="cls-124" d="M234.52,60.27l1.1.1,2.4.6.7.3c-.9.2-1.4.7-1.3,1.5-.1,2.8-.3,5.6-.3,8.4l-.7-.5c-.7-.5-1.5-1-2.3-1.5C234.42,66.27,233.92,63.17,234.52,60.27Z"/><path class="cls-223" d="M506.82,60a5.1,5.1,0,0,1,1.1,4.6c-.9,3.3-3.5,5.9-6.3,7.7-4.8,3-10.5,5.3-14.9,8.9-2-.2-3.9-.4-5.9-.8a31.33,31.33,0,0,0,3.2-1.5c2.7-1.4,5.3-3,8-4.5a88.43,88.43,0,0,0,9.9-5.8,13.17,13.17,0,0,0,3.7-4.1C506.32,63,506.32,61.57,506.82,60Z"/><path class="cls-224" d="M477.12,61.17a10.1,10.1,0,0,0-1.6,1.3c-2.8,2.2-5.5,5.1-6.2,8.6a9.75,9.75,0,0,0,.5,6.3c-.8-.3-1.6-.7-2.3-1a9.23,9.23,0,0,1,.9-6.1c1.5-2.8,2-6.5,4.5-8.5C473.92,60.67,475.72,61.17,477.12,61.17Z"/><path class="cls-225" d="M175.62,61.37a8,8,0,0,1-.3,3.1c-4.8,2.3-9.2,5.2-14.2,7.1-4.7,1.8-10.4,3.2-14.5,6a6,6,0,0,0-2.6,3.6,19.67,19.67,0,0,1-2.4-.3l.1-1.3a10,10,0,0,1,5.1-5.4c4.6-2.4,10-3.6,14.9-5.7C166.62,66.57,170.82,63.57,175.62,61.37Z"/><path class="cls-226" d="M175.62,61.37v11.2a36.62,36.62,0,0,1-11.6,6c-6.3,2-13.3,3.3-20,2.6a6,6,0,0,1,2.6-3.6c4.1-2.9,9.8-4.2,14.5-6,5-1.9,9.3-4.8,14.2-7.1A8,8,0,0,0,175.62,61.37Z"/><path class="cls-227" d="M184.92,61.27c.6.2,1.2.5,1.8.7l.4.2c.6.4,1.2.9,1.9,1.3a15.93,15.93,0,0,1,1.3,1.3,2.7,2.7,0,0,1-2.3-.4c-1-.4-2-.7-3-1A14.77,14.77,0,0,1,184.92,61.27Z"/><path class="cls-102" d="M238.82,61.37a18.89,18.89,0,0,1,5.3,4.1c2.4,4.7,4.6,9.3,5.7,14.4h-7.1a21.18,21.18,0,0,0-5.5-8.6c0-2.8.2-5.6.3-8.4C237.42,62,237.82,61.47,238.82,61.37Z"/><path class="cls-219" d="M370.62,61.87H391a20.44,20.44,0,0,0-2.5,3.3h-.2a3.68,3.68,0,0,0-1.5-.8c-3.6-.2-7.3.1-11-.1-2-.5-3-2.5-5.3-2.1v-.3Z"/><path class="cls-228" d="M390.82,61.87c3-.2,5.9.1,8.9,0v2.3c-1.9.3-3.8-.2-5.7,0a12.74,12.74,0,0,0-1.9,1.3l-1.2-.1h-.4a37.27,37.27,0,0,0,2.6-3c-.8-.2-1.5-.3-2.3-.5Z"/><path class="cls-229" d="M370.62,62.07c2.4-.4,3.3,1.6,5.3,2.1,3.6.3,7.3,0,11,.1a2.78,2.78,0,0,1,1.5.8c-.6.7-1.2,1.4-1.8,2-4.2-.3-9.2.5-13-1C372.32,65.27,370.22,63.77,370.62,62.07Z"/><path class="cls-230" d="M391,61.87a18.92,18.92,0,0,1,2.3.5,18.67,18.67,0,0,1-2.6,3,16.35,16.35,0,0,1-2.2-.2A20.44,20.44,0,0,1,391,61.87Z"/><path class="cls-231" d="M427.42,62.37h12.3l.1.3c-.8.9-1.6,1.9-2.4,2.9-.3.3-.6.7-.9,1-2.1-.3-4.7-.3-6.6-1.4A11,11,0,0,1,427.42,62.37Z"/><path class="cls-232" d="M439.72,62.27c4.9-.1,9.8,0,14.7.1-.2.5-.5,1-.7,1.5l-1.1,1.4a22.38,22.38,0,0,1-5.8-.3,15.05,15.05,0,0,0,1.1-2.2,74.48,74.48,0,0,0-8.2-.1Z"/><path class="cls-233" d="M454.42,62.37c1.7.1,3.3,0,5,0,0,.5.1.9.1,1.4l-.7.7-5.1-.6C453.92,63.37,454.22,62.87,454.42,62.37Z"/><path class="cls-234" d="M7.62,62.67a68.68,68.68,0,0,1,.3,7.9l-.1.4c-.9.6-1.7,1.3-2.5,1.9v-7.6A28.48,28.48,0,0,0,7.62,62.67Z"/><path class="cls-235" d="M103.52,62.87v1.2C102,64.47,101.92,62.37,103.52,62.87Z"/><path class="cls-236" d="M251.82,62.47a36.76,36.76,0,0,0,1.5,4.7c-.1,4.2,0,8.4,0,12.6a5.7,5.7,0,0,1-1.3.1c-.3-1.3-.7-2.6-1.1-3.9.8-2.4.3-5.3.4-7.8C251.32,66.17,250.82,64.17,251.82,62.47Z"/><path class="cls-237" d="M439.82,62.67c2.7,0,5.5-.1,8.2.1a22.56,22.56,0,0,1-1.1,2.2l-.5.7c-3-.2-6-.2-9-.1A21.72,21.72,0,0,1,439.82,62.67Z"/><path class="cls-238" d="M184.92,63.37c1,.3,2,.6,3,1-.6,2.7-.2,5.6-.3,8.4a60.78,60.78,0,0,0,.3,6.1l-.6.6a8.62,8.62,0,0,0-2.4-3Z"/><path class="cls-194" d="M26.32,63.87a9.8,9.8,0,0,0,2.1,2.4c1.8,1.4,3.7,1,6,1.7a129.34,129.34,0,0,0-19.2,10.8,23.2,23.2,0,0,1-3.6-1.6A18,18,0,0,1,11,75l.2-.3C16.12,71.07,21.12,67.07,26.32,63.87Z"/><path class="cls-239" d="M394.12,64.17c1.9-.2,3.7.3,5.7,0v15.6h-15.9l.1-1c4.1,0,8.3.1,12.4,0,2.2-.2,2.6-2.4,2.7-4.2,0-2.1.2-4.7-.8-6.6-1.7-1.3-4.1-1.2-6.1-1.2l.2-1.2A6.07,6.07,0,0,1,394.12,64.17Z"/><path class="cls-240" d="M453.72,63.87l5.1.6c-.6,1-1.1,2-1.6,3l-.7-.8c-1.5-.1-2.9-.1-4.4-.1.1-.4.3-.8.4-1.3A7.47,7.47,0,0,0,453.72,63.87Z"/><path class="cls-241" d="M459.52,63.77v16c-1.7.1-3.4,0-5.1,0v-1a4.09,4.09,0,0,0,4.2-2.5,34.21,34.21,0,0,0,0-6.4c0-.8-1.2-1.1-1.7-1.5l.4-.9c.5-1,1.1-2,1.6-3C459.12,64.27,459.32,64,459.52,63.77Z"/><path class="cls-242" d="M144.12,64.67a4.18,4.18,0,0,1-.4,1,20.36,20.36,0,0,0,2.2.9,36,36,0,0,0-9.1,1.9,27.7,27.7,0,0,0-7.8,4.9l-.3.2a20,20,0,0,0-1-2.1,23.33,23.33,0,0,1,12.3-6.2C141.52,65.07,142.82,64.87,144.12,64.67Z"/><path class="cls-243" d="M188,64.37a2.7,2.7,0,0,0,2.3.4,7.55,7.55,0,0,1,1.1,1.4c-.6.1-1.1.3-1.7.4.3,3.3,0,6.5.2,9.8.1,1.2.9,1.8,1.6,2.8-.5.2-1.1.5-1.6.7H187l.3-.3.6-.6c0-2-.4-4.1-.3-6.1C187.82,70,187.42,67.07,188,64.37Z"/><path class="cls-244" d="M120.32,65c.4.7.7,1.5,1.1,2.2-.6.6-1.2,1.3-1.9,1.9-.5-.6-1-1.3-1.5-2l1.2-1.2A4.81,4.81,0,0,0,120.32,65Z"/><path class="cls-245" d="M388.32,65.07h.2a16.35,16.35,0,0,0,2.2.2h.4a49,49,0,0,0-7.1,8c-1.2,1.8-1.5,3.7-2.1,5.6l-.7.5a12.86,12.86,0,0,1-.3-3.9c.8-3.3,3.4-6.1,5.6-8.6A7.68,7.68,0,0,0,388.32,65.07Z"/><path class="cls-246" d="M446.82,65a28.58,28.58,0,0,0,5.8.3c-.1.4-.3.8-.4,1.3l-1.2,2.1c-2-.2-4.1-.2-6.1-.2l.1-.4c.4-.8.8-1.6,1.3-2.4Z"/><path class="cls-132" d="M477.22,65.47c3.2,1,6.1,2.4,9.4,2.9a32.06,32.06,0,0,0,10.7.7c1.6-.1,3.2-1.3,4.6-.4-3,2.3-6.6,4-9.9,5.8-2.7,1.4-5.3,3.1-8,4.5-4.4-.9-8.4-1.4-12.2-4-.7-1.1-.1-2.2.2-3.4a15.67,15.67,0,0,1,2.5-5.2A2.2,2.2,0,0,1,477.22,65.47Z"/><path class="cls-102" d="M45.82,65.67c6,.4,10.9,4.3,17,5.5-6.7,5.7-15.2,8.3-23.9,8.6h-25l1.3-1A121,121,0,0,1,34.42,68,22.7,22.7,0,0,1,45.82,65.67Z"/><path class="cls-247" d="M244,65.37c3.6,1.8,5.4,6.9,6.7,10.5.4,1.3.8,2.6,1.1,3.9h-2.2C248.72,74.67,246.42,70.07,244,65.37Z"/><path class="cls-248" d="M305,65.87c2.2-.1,4.3-.1,6.5-.1.2.7.5,1.3.7,2,1.9.2,4.4-.1,6.2.1-4.2,0-8.4-.2-12.6-.1A10.84,10.84,0,0,1,305,65.87Z"/><path class="cls-249" d="M391.12,65.37l1.2.1-.2,1.2A56.54,56.54,0,0,0,385,75a6.21,6.21,0,0,0-1,3.8l-.1,1a26.15,26.15,0,0,1-2.8,0l.1-.2.7-.5c.6-2,.9-3.9,2.1-5.6A45.34,45.34,0,0,1,391.12,65.37Z"/><path class="cls-99" d="M437.32,65.57c3-.1,6-.1,9,.1-.4.8-.9,1.6-1.3,2.4-3.3.1-6.6-.1-9.9,0a17.38,17.38,0,0,0,1.3-1.5A9,9,0,0,1,437.32,65.57Z"/><path class="cls-78" d="M189.72,66.57c.6-.1,1.1-.3,1.7-.4,2.7,3.6,3.7,7.7,4.2,12a8.75,8.75,0,0,1,.2,1.6h-6a11.11,11.11,0,0,0,1.6-.7c-.6-1-1.5-1.6-1.6-2.8C189.72,73.07,190,69.77,189.72,66.57Z"/><path class="cls-96" d="M452.22,66.47c1.5.1,2.9,0,4.4.1l.7.8-.4.9a31.38,31.38,0,0,0-2.4,8.6c-.3.3-.5.6-.8.9-1.8.4-3.8.1-5.7.2v-.4a47.55,47.55,0,0,1,3-9A19.61,19.61,0,0,0,452.22,66.47Z"/><path class="cls-250" d="M121.42,67.17l.4-.3c2.5,1.5,3.1,4,5.8,4.9-.9.8-1.8,1.5-2.7,2.3a31.4,31.4,0,0,1-5.3-5C120.22,68.47,120.82,67.87,121.42,67.17Z"/><path class="cls-90" d="M392.12,66.77c2,0,4.5-.2,6.1,1.2,1,1.9.8,4.5.8,6.6-.1,1.8-.5,4-2.7,4.2-4.1.1-8.3,0-12.4,0a6.4,6.4,0,0,1,1-3.8A62.18,62.18,0,0,1,392.12,66.77Z"/><path class="cls-110" d="M11.12,68c-.1,2.2,0,4.5.1,6.7L11,75c-.6.5-1.2.9-1.8,1.4a15,15,0,0,0-1.3,1.1,47,47,0,0,0,0-6.5l.1-.4c.8-.6,1.5-1.2,2.3-1.9C10.52,68.47,10.82,68.27,11.12,68Z"/><path class="cls-251" d="M231.42,68.77c.9.2,1.8.3,2.7.5a18.19,18.19,0,0,1,2.3,1.5c-1.4,1.1-.8,3.4-.9,5s1,2.2,1.7,3.3a14.16,14.16,0,0,1-2.2.7c-1.2,0-2.4.1-3.7,0C231.32,76.17,231.42,72.47,231.42,68.77Z"/><path class="cls-92" d="M444.92,68.47c2,0,4.1,0,6.1.2a39.67,39.67,0,0,0-3,9,16.25,16.25,0,0,1-7.9,0A61.77,61.77,0,0,1,444.92,68.47Z"/><path class="cls-252" d="M456.82,68.37c.5.4,1.7.7,1.7,1.5a34.21,34.21,0,0,1,0,6.4c-.8,1.9-2.2,2.5-4.2,2.5a12.1,12.1,0,0,1,.1-1.9A31.7,31.7,0,0,1,456.82,68.37Z"/><path class="cls-138" d="M319.12,69.47c.6-.1,1.1-.1,1.7-.2.2.4.4.7.6,1.1,1.2,3.1,2.5,6,2.8,9.4h-1.3C321.42,76.37,320.42,72.87,319.12,69.47Z"/><path class="cls-253" d="M321.32,70.37c2-.1,2.3,1.8,3,3.3a22.9,22.9,0,0,0,3.1,5.5c-.6.2-1.2.5-1.8.7H324C323.92,76.47,322.52,73.57,321.32,70.37Z"/><path class="cls-106" d="M7.92,71a47,47,0,0,1,0,6.5c-.8.7-1.6,1.4-2.4,2-.1-2.2,0-4.4-.1-6.6C6.22,72.17,7.12,71.57,7.92,71Z"/><path class="cls-254" d="M236.52,70.67l.7.5a21.18,21.18,0,0,1,5.5,8.6h-7.5c.7-.2,1.5-.5,2.2-.7-.8-1.1-1.9-1.8-1.7-3.3C235.62,74.17,235.12,71.87,236.52,70.67Z"/><path class="cls-255" d="M127.52,71.87l.4-.4a20,20,0,0,0,1,2.1c-.7.7-1.3,1.4-1.9,2.1l-2.1-1.5C125.72,73.37,126.62,72.67,127.52,71.87Z"/><path class="cls-256" d="M128.92,73.47l.3-.2c2.8,3.5,8.7,4.6,12.6,6.4l-.2,1.3a35.36,35.36,0,0,1-14.7-5.4C127.62,74.87,128.22,74.17,128.92,73.47Z"/><path class="cls-257" d="M342.72,73.47c.8,2.1,1.7,4.2,2.5,6.3h-5.9A22.66,22.66,0,0,1,342.72,73.47Z"/><path class="cls-258" d="M103.52,74.17v2.1a22.37,22.37,0,0,0-7.7,3.5h-3.5l.8-.8C96,76.37,99.92,75.17,103.52,74.17Z"/><path class="cls-259" d="M11,75c.2.8.4,1.5.6,2.2,1.1.6,2.4,1,3.6,1.6a11.32,11.32,0,0,1-1.3,1h-3.5c-.3-1.2-1-2.2-1.2-3.4C9.82,75.87,10.42,75.47,11,75Z"/><path class="cls-260" d="M380.92,75.67a12.86,12.86,0,0,0,.3,3.9l-.1.2c-7.8-.1-15.7,0-23.5-.1.3-.7.5-1.5.8-2.2,3.6.9,7.9,0,11.5.2,3.4.3,6.8,0,10.3,0A9.33,9.33,0,0,0,380.92,75.67Z"/><path class="cls-261" d="M9.22,76.37c.2,1.2.9,2.2,1.2,3.4-1.6-.1-3.3.1-4.9.1l-.1-.4a23.13,23.13,0,0,0,2.4-2C8.32,77.07,8.82,76.67,9.22,76.37Z"/><path class="cls-262" d="M103.52,76.27c0,1.2-.1,2.3-.1,3.5-2.5-.1-5,.1-7.6,0A25.45,25.45,0,0,1,103.52,76.27Z"/><path class="cls-263" d="M184.92,76.57a8,8,0,0,1,2.4,3l-.3.3h-2C184.92,78.67,185,77.57,184.92,76.57Z"/><path class="cls-264" d="M454.52,77c0,.6-.1,1.3-.1,1.9v1c-2.3.1-4.6,0-6.8,0,.1-.6.3-1.2.4-1.8a53.34,53.34,0,0,0,5.7-.2A3.45,3.45,0,0,1,454.52,77Z"/><path class="cls-265" d="M440,77.57a17.56,17.56,0,0,0,7.9,0V78c-.1.6-.3,1.2-.4,1.8h-8.3l.1-1.1A6.73,6.73,0,0,0,440,77.57Z"/><path class="cls-266" d="M195.62,78.17c2-.1,4-.1,6-.1l.1.6v1.1h-5.9A8.75,8.75,0,0,0,195.62,78.17Z"/></svg>